<svg xmlns="http://www.w3.org/2000/svg" xmlns:xlink="http://www.w3.org/1999/xlink" width="500" zoomAndPan="magnify" viewBox="0 0 375 374.999991" height="500" preserveAspectRatio="xMidYMid meet" version="1.0"><defs><g/><clipPath id="fde42a9bfb"><path d="M 24 0 L 351 0 C 364.253906 0 375 10.746094 375 24 L 375 351 C 375 364.253906 364.253906 375 351 375 L 24 375 C 10.746094 375 0 364.253906 0 351 L 0 24 C 0 10.746094 10.746094 0 24 0 Z M 24 0 " clip-rule="nonzero"/></clipPath><linearGradient x1="-0" gradientTransform="matrix(1.464844, 0, 0, 1.464844, 0.0000045, 0)" y1="-0" x2="255.999988" gradientUnits="userSpaceOnUse" y2="255.999988" id="d6893a6543"><stop stop-opacity="1" stop-color="rgb(0%, 0%, 0%)" offset="0"/><stop stop-opacity="1" stop-color="rgb(0.0961304%, 0.140381%, 0.0762939%)" offset="0.0078125"/><stop stop-opacity="1" stop-color="rgb(0.291443%, 0.421143%, 0.228882%)" offset="0.015625"/><stop stop-opacity="1" stop-color="rgb(0.486755%, 0.701904%, 0.38147%)" offset="0.0234375"/><stop stop-opacity="1" stop-color="rgb(0.682068%, 0.982666%, 0.535583%)" offset="0.03125"/><stop stop-opacity="1" stop-color="rgb(0.87738%, 1.264954%, 0.688171%)" offset="0.0390625"/><stop stop-opacity="1" stop-color="rgb(1.072693%, 1.545715%, 0.840759%)" offset="0.046875"/><stop stop-opacity="1" stop-color="rgb(1.268005%, 1.826477%, 0.994873%)" offset="0.0546875"/><stop stop-opacity="1" stop-color="rgb(1.463318%, 2.108765%, 1.147461%)" offset="0.0625"/><stop stop-opacity="1" stop-color="rgb(1.65863%, 2.389526%, 1.300049%)" offset="0.0703125"/><stop stop-opacity="1" stop-color="rgb(1.853943%, 2.670288%, 1.454163%)" offset="0.078125"/><stop stop-opacity="1" stop-color="rgb(2.049255%, 2.952576%, 1.60675%)" offset="0.0859375"/><stop stop-opacity="1" stop-color="rgb(2.244568%, 3.233337%, 1.759338%)" offset="0.09375"/><stop stop-opacity="1" stop-color="rgb(2.43988%, 3.514099%, 1.913452%)" offset="0.101562"/><stop stop-opacity="1" stop-color="rgb(2.635193%, 3.796387%, 2.06604%)" offset="0.109375"/><stop stop-opacity="1" stop-color="rgb(2.830505%, 4.077148%, 2.218628%)" offset="0.117188"/><stop stop-opacity="1" stop-color="rgb(3.025818%, 4.35791%, 2.372742%)" offset="0.125"/><stop stop-opacity="1" stop-color="rgb(3.22113%, 4.640198%, 2.52533%)" offset="0.132812"/><stop stop-opacity="1" stop-color="rgb(3.416443%, 4.920959%, 2.677917%)" offset="0.140625"/><stop stop-opacity="1" stop-color="rgb(3.611755%, 5.201721%, 2.832031%)" offset="0.148438"/><stop stop-opacity="1" stop-color="rgb(3.807068%, 5.484009%, 2.984619%)" offset="0.15625"/><stop stop-opacity="1" stop-color="rgb(4.00238%, 5.764771%, 3.138733%)" offset="0.164062"/><stop stop-opacity="1" stop-color="rgb(4.197693%, 6.045532%, 3.291321%)" offset="0.171875"/><stop stop-opacity="1" stop-color="rgb(4.393005%, 6.32782%, 3.443909%)" offset="0.179688"/><stop stop-opacity="1" stop-color="rgb(4.588318%, 6.608582%, 3.598022%)" offset="0.1875"/><stop stop-opacity="1" stop-color="rgb(4.78363%, 6.889343%, 3.75061%)" offset="0.195312"/><stop stop-opacity="1" stop-color="rgb(4.978943%, 7.170105%, 3.903198%)" offset="0.203125"/><stop stop-opacity="1" stop-color="rgb(5.174255%, 7.452393%, 4.057312%)" offset="0.210938"/><stop stop-opacity="1" stop-color="rgb(5.369568%, 7.733154%, 4.2099%)" offset="0.21875"/><stop stop-opacity="1" stop-color="rgb(5.56488%, 8.013916%, 4.362488%)" offset="0.226562"/><stop stop-opacity="1" stop-color="rgb(5.760193%, 8.296204%, 4.516602%)" offset="0.234375"/><stop stop-opacity="1" stop-color="rgb(5.955505%, 8.576965%, 4.669189%)" offset="0.242188"/><stop stop-opacity="1" stop-color="rgb(6.150818%, 8.857727%, 4.821777%)" offset="0.25"/><stop stop-opacity="1" stop-color="rgb(6.34613%, 9.140015%, 4.975891%)" offset="0.257812"/><stop stop-opacity="1" stop-color="rgb(6.541443%, 9.420776%, 5.128479%)" offset="0.265625"/><stop stop-opacity="1" stop-color="rgb(6.736755%, 9.701538%, 5.281067%)" offset="0.273438"/><stop stop-opacity="1" stop-color="rgb(6.932068%, 9.983826%, 5.435181%)" offset="0.28125"/><stop stop-opacity="1" stop-color="rgb(7.12738%, 10.264587%, 5.587769%)" offset="0.289063"/><stop stop-opacity="1" stop-color="rgb(7.322693%, 10.545349%, 5.741882%)" offset="0.296875"/><stop stop-opacity="1" stop-color="rgb(7.518005%, 10.827637%, 5.89447%)" offset="0.304688"/><stop stop-opacity="1" stop-color="rgb(7.713318%, 11.108398%, 6.047058%)" offset="0.3125"/><stop stop-opacity="1" stop-color="rgb(7.90863%, 11.38916%, 6.201172%)" offset="0.320312"/><stop stop-opacity="1" stop-color="rgb(8.103943%, 11.671448%, 6.35376%)" offset="0.328125"/><stop stop-opacity="1" stop-color="rgb(8.299255%, 11.952209%, 6.506348%)" offset="0.335938"/><stop stop-opacity="1" stop-color="rgb(8.494568%, 12.232971%, 6.660461%)" offset="0.34375"/><stop stop-opacity="1" stop-color="rgb(8.68988%, 12.515259%, 6.813049%)" offset="0.351562"/><stop stop-opacity="1" stop-color="rgb(8.885193%, 12.796021%, 6.965637%)" offset="0.359375"/><stop stop-opacity="1" stop-color="rgb(9.080505%, 13.076782%, 7.119751%)" offset="0.367188"/><stop stop-opacity="1" stop-color="rgb(9.275818%, 13.35907%, 7.272339%)" offset="0.375"/><stop stop-opacity="1" stop-color="rgb(9.47113%, 13.639832%, 7.424927%)" offset="0.382812"/><stop stop-opacity="1" stop-color="rgb(9.666443%, 13.920593%, 7.579041%)" offset="0.390625"/><stop stop-opacity="1" stop-color="rgb(9.861755%, 14.201355%, 7.731628%)" offset="0.398438"/><stop stop-opacity="1" stop-color="rgb(10.057068%, 14.483643%, 7.884216%)" offset="0.40625"/><stop stop-opacity="1" stop-color="rgb(10.25238%, 14.764404%, 8.03833%)" offset="0.414062"/><stop stop-opacity="1" stop-color="rgb(10.447693%, 15.045166%, 8.190918%)" offset="0.421875"/><stop stop-opacity="1" stop-color="rgb(10.643005%, 15.327454%, 8.345032%)" offset="0.429688"/><stop stop-opacity="1" stop-color="rgb(10.838318%, 15.608215%, 8.49762%)" offset="0.4375"/><stop stop-opacity="1" stop-color="rgb(11.03363%, 15.888977%, 8.650208%)" offset="0.445312"/><stop stop-opacity="1" stop-color="rgb(11.228943%, 16.171265%, 8.804321%)" offset="0.453125"/><stop stop-opacity="1" stop-color="rgb(11.424255%, 16.452026%, 8.956909%)" offset="0.460938"/><stop stop-opacity="1" stop-color="rgb(11.619568%, 16.732788%, 9.109497%)" offset="0.46875"/><stop stop-opacity="1" stop-color="rgb(11.81488%, 17.015076%, 9.263611%)" offset="0.476562"/><stop stop-opacity="1" stop-color="rgb(12.010193%, 17.295837%, 9.416199%)" offset="0.484375"/><stop stop-opacity="1" stop-color="rgb(12.205505%, 17.576599%, 9.568787%)" offset="0.492188"/><stop stop-opacity="1" stop-color="rgb(12.400818%, 17.858887%, 9.7229%)" offset="0.5"/><stop stop-opacity="1" stop-color="rgb(12.45575%, 17.999268%, 9.909058%)" offset="0.515625"/><stop stop-opacity="1" stop-color="rgb(12.371826%, 17.999268%, 10.131836%)" offset="0.53125"/><stop stop-opacity="1" stop-color="rgb(12.287903%, 17.999268%, 10.353088%)" offset="0.546875"/><stop stop-opacity="1" stop-color="rgb(12.203979%, 17.999268%, 10.575867%)" offset="0.5625"/><stop stop-opacity="1" stop-color="rgb(12.11853%, 17.999268%, 10.797119%)" offset="0.578125"/><stop stop-opacity="1" stop-color="rgb(12.034607%, 17.999268%, 11.018372%)" offset="0.59375"/><stop stop-opacity="1" stop-color="rgb(11.950684%, 17.999268%, 11.24115%)" offset="0.609375"/><stop stop-opacity="1" stop-color="rgb(11.865234%, 17.999268%, 11.462402%)" offset="0.625"/><stop stop-opacity="1" stop-color="rgb(11.781311%, 17.999268%, 11.685181%)" offset="0.640625"/><stop stop-opacity="1" stop-color="rgb(11.697388%, 17.999268%, 11.906433%)" offset="0.65625"/><stop stop-opacity="1" stop-color="rgb(11.613464%, 17.999268%, 12.129211%)" offset="0.671875"/><stop stop-opacity="1" stop-color="rgb(11.528015%, 17.999268%, 12.350464%)" offset="0.6875"/><stop stop-opacity="1" stop-color="rgb(11.444092%, 17.999268%, 12.571716%)" offset="0.703125"/><stop stop-opacity="1" stop-color="rgb(11.360168%, 17.999268%, 12.794495%)" offset="0.71875"/><stop stop-opacity="1" stop-color="rgb(11.274719%, 17.999268%, 13.015747%)" offset="0.734375"/><stop stop-opacity="1" stop-color="rgb(11.190796%, 17.999268%, 13.238525%)" offset="0.75"/><stop stop-opacity="1" stop-color="rgb(11.106873%, 17.999268%, 13.459778%)" offset="0.765625"/><stop stop-opacity="1" stop-color="rgb(11.021423%, 17.999268%, 13.68103%)" offset="0.78125"/><stop stop-opacity="1" stop-color="rgb(10.9375%, 17.999268%, 13.903809%)" offset="0.796875"/><stop stop-opacity="1" stop-color="rgb(10.853577%, 17.999268%, 14.125061%)" offset="0.8125"/><stop stop-opacity="1" stop-color="rgb(10.769653%, 17.999268%, 14.347839%)" offset="0.828125"/><stop stop-opacity="1" stop-color="rgb(10.684204%, 17.999268%, 14.569092%)" offset="0.84375"/><stop stop-opacity="1" stop-color="rgb(10.600281%, 17.999268%, 14.790344%)" offset="0.859375"/><stop stop-opacity="1" stop-color="rgb(10.516357%, 17.999268%, 15.013123%)" offset="0.875"/><stop stop-opacity="1" stop-color="rgb(10.430908%, 17.999268%, 15.234375%)" offset="0.890625"/><stop stop-opacity="1" stop-color="rgb(10.346985%, 17.999268%, 15.457153%)" offset="0.90625"/><stop stop-opacity="1" stop-color="rgb(10.263062%, 17.999268%, 15.678406%)" offset="0.921875"/><stop stop-opacity="1" stop-color="rgb(10.179138%, 17.999268%, 15.899658%)" offset="0.9375"/><stop stop-opacity="1" stop-color="rgb(10.093689%, 17.999268%, 16.122437%)" offset="0.953125"/><stop stop-opacity="1" stop-color="rgb(10.009766%, 17.999268%, 16.343689%)" offset="0.96875"/><stop stop-opacity="1" stop-color="rgb(9.925842%, 17.999268%, 16.566467%)" offset="0.984375"/><stop stop-opacity="1" stop-color="rgb(9.840393%, 17.999268%, 16.78772%)" offset="1"/></linearGradient></defs><g clip-path="url(#fde42a9bfb)"><rect x="-37.5" fill="url(#d6893a6543)" width="450" y="-37.499999" height="449.999989"/></g><g fill="#03cb8e" fill-opacity="1"><g transform="translate(98.212307, 164.814741)"><g><path d="M 18.921875 0 L 18.921875 -35.703125 L 1.015625 -35.703125 L 1.015625 -45.09375 L 49.546875 -45.09375 L 49.546875 -35.703125 L 31.625 -35.703125 L 31.625 0 Z M 18.921875 0 "/></g></g></g><g fill="#03cb8e" fill-opacity="1"><g transform="translate(138.229054, 164.814741)"><g><path d="M 24.515625 0.765625 C 20.148438 0.765625 16.253906 0.109375 12.828125 -1.203125 C 9.398438 -2.515625 6.703125 -4.441406 4.734375 -6.984375 C 2.765625 -9.523438 1.78125 -12.640625 1.78125 -16.328125 C 1.78125 -20.046875 2.710938 -23.175781 4.578125 -25.71875 C 6.441406 -28.257812 9.054688 -30.175781 12.421875 -31.46875 C 15.785156 -32.757812 19.691406 -33.40625 24.140625 -33.40625 C 28.835938 -33.40625 32.816406 -32.675781 36.078125 -31.21875 C 39.335938 -29.757812 41.757812 -27.578125 43.34375 -24.671875 C 44.9375 -21.773438 45.519531 -18.1875 45.09375 -13.90625 L 14.15625 -13.90625 C 14.375 -12.132812 15.316406 -10.632812 16.984375 -9.40625 C 18.660156 -8.175781 21.171875 -7.5625 24.515625 -7.5625 C 27.484375 -7.5625 29.613281 -7.898438 30.90625 -8.578125 C 32.195312 -9.253906 33.140625 -10.144531 33.734375 -11.25 L 44.96875 -10.03125 C 44.039062 -6.519531 41.734375 -3.84375 38.046875 -2 C 34.359375 -0.15625 29.847656 0.765625 24.515625 0.765625 Z M 24.265625 -25.71875 C 21.085938 -25.71875 18.703125 -25.175781 17.109375 -24.09375 C 15.523438 -23.019531 14.566406 -21.722656 14.234375 -20.203125 L 33.859375 -20.203125 C 33.597656 -21.972656 32.671875 -23.332031 31.078125 -24.28125 C 29.492188 -25.238281 27.222656 -25.71875 24.265625 -25.71875 Z M 24.265625 -25.71875 "/></g></g><g transform="translate(185.359912, 164.814741)"><g><path d="M 23.8125 0.765625 C 20.976562 0.765625 18.25 0.394531 15.625 -0.34375 C 13 -1.082031 10.640625 -2.171875 8.546875 -3.609375 C 6.453125 -5.054688 4.789062 -6.835938 3.5625 -8.953125 C 2.332031 -11.066406 1.71875 -13.523438 1.71875 -16.328125 C 1.71875 -20.046875 2.710938 -23.175781 4.703125 -25.71875 C 6.691406 -28.257812 9.367188 -30.175781 12.734375 -31.46875 C 16.097656 -32.757812 19.789062 -33.40625 23.8125 -33.40625 C 27.03125 -33.40625 30.066406 -32.972656 32.921875 -32.109375 C 35.785156 -31.242188 38.222656 -29.890625 40.234375 -28.046875 C 42.242188 -26.203125 43.566406 -23.816406 44.203125 -20.890625 L 32.78125 -19.6875 C 32.144531 -21.300781 31.070312 -22.59375 29.5625 -23.5625 C 28.0625 -24.539062 26.125 -25.03125 23.75 -25.03125 C 20.789062 -25.03125 18.441406 -24.253906 16.703125 -22.703125 C 14.960938 -21.160156 14.09375 -19.140625 14.09375 -16.640625 L 14.09375 -16 C 14.09375 -13.550781 14.960938 -11.539062 16.703125 -9.96875 C 18.441406 -8.40625 20.789062 -7.625 23.75 -7.625 C 26.125 -7.625 28.0625 -8.109375 29.5625 -9.078125 C 31.070312 -10.054688 32.144531 -11.347656 32.78125 -12.953125 L 44.203125 -11.75 C 43.566406 -8.832031 42.242188 -6.453125 40.234375 -4.609375 C 38.222656 -2.765625 35.785156 -1.40625 32.921875 -0.53125 C 30.066406 0.332031 27.03125 0.765625 23.8125 0.765625 Z M 23.8125 0.765625 "/></g></g></g><g fill="#03cb8e" fill-opacity="1"><g transform="translate(230.902798, 164.814741)"><g><path d="M 3.296875 0 L 3.296875 -45.09375 L 15.625 -45.09375 L 15.625 -29.71875 C 18.332031 -32.175781 22.25 -33.40625 27.375 -33.40625 C 29.113281 -33.40625 30.890625 -33.210938 32.703125 -32.828125 C 34.523438 -32.453125 36.195312 -31.785156 37.71875 -30.828125 C 39.25 -29.878906 40.488281 -28.566406 41.4375 -26.890625 C 42.394531 -25.222656 42.875 -23.117188 42.875 -20.578125 L 42.875 0 L 30.546875 0 L 30.546875 -19.3125 C 30.546875 -21.257812 29.867188 -22.664062 28.515625 -23.53125 C 27.160156 -24.394531 25.363281 -24.828125 23.125 -24.828125 C 20.875 -24.828125 19.070312 -24.394531 17.71875 -23.53125 C 16.363281 -22.664062 15.664062 -21.257812 15.625 -19.3125 L 15.625 0 Z M 3.296875 0 "/></g></g></g><g fill="#03cb8e" fill-opacity="1"><g transform="translate(12.823639, 253.287183)"><g><path d="M 28.96875 0.765625 C 23.25 0.765625 18.390625 -0.238281 14.390625 -2.25 C 10.390625 -4.257812 7.328125 -7.019531 5.203125 -10.53125 C 3.085938 -14.050781 2.03125 -18.035156 2.03125 -22.484375 C 2.03125 -26.972656 3.078125 -30.972656 5.171875 -34.484375 C 7.273438 -38.003906 10.335938 -40.78125 14.359375 -42.8125 C 18.378906 -44.84375 23.25 -45.859375 28.96875 -45.859375 C 34.71875 -45.859375 39.59375 -44.851562 43.59375 -42.84375 C 47.601562 -40.832031 50.65625 -38.066406 52.75 -34.546875 C 54.84375 -31.035156 55.890625 -27.015625 55.890625 -22.484375 C 55.890625 -18.035156 54.84375 -14.050781 52.75 -10.53125 C 50.65625 -7.019531 47.601562 -4.257812 43.59375 -2.25 C 39.59375 -0.238281 34.71875 0.765625 28.96875 0.765625 Z M 28.96875 -8.890625 C 33.28125 -8.890625 36.707031 -10.019531 39.25 -12.28125 C 41.789062 -14.550781 43.0625 -17.695312 43.0625 -21.71875 L 43.0625 -23.375 C 43.0625 -27.394531 41.789062 -30.535156 39.25 -32.796875 C 36.707031 -35.066406 33.28125 -36.203125 28.96875 -36.203125 C 24.644531 -36.203125 21.210938 -35.066406 18.671875 -32.796875 C 16.128906 -30.535156 14.859375 -27.394531 14.859375 -23.375 L 14.859375 -21.71875 C 14.859375 -17.695312 16.128906 -14.550781 18.671875 -12.28125 C 21.210938 -10.019531 24.644531 -8.890625 28.96875 -8.890625 Z M 28.96875 -8.890625 "/></g></g></g><g fill="#03cb8e" fill-opacity="1"><g transform="translate(69.736368, 253.287183)"><g><path d="M 16.328125 0 L 0 -32.640625 L 12.828125 -32.640625 L 22.859375 -11.171875 L 32.84375 -32.640625 L 45.40625 -32.640625 L 29.09375 0 Z M 16.328125 0 "/></g></g></g><g fill="#03cb8e" fill-opacity="1"><g transform="translate(112.547942, 253.287183)"><g><path d="M 24.515625 0.765625 C 20.148438 0.765625 16.253906 0.109375 12.828125 -1.203125 C 9.398438 -2.515625 6.703125 -4.441406 4.734375 -6.984375 C 2.765625 -9.523438 1.78125 -12.640625 1.78125 -16.328125 C 1.78125 -20.046875 2.710938 -23.175781 4.578125 -25.71875 C 6.441406 -28.257812 9.054688 -30.175781 12.421875 -31.46875 C 15.785156 -32.757812 19.691406 -33.40625 24.140625 -33.40625 C 28.835938 -33.40625 32.816406 -32.675781 36.078125 -31.21875 C 39.335938 -29.757812 41.757812 -27.578125 43.34375 -24.671875 C 44.9375 -21.773438 45.519531 -18.1875 45.09375 -13.90625 L 14.15625 -13.90625 C 14.375 -12.132812 15.316406 -10.632812 16.984375 -9.40625 C 18.660156 -8.175781 21.171875 -7.5625 24.515625 -7.5625 C 27.484375 -7.5625 29.613281 -7.898438 30.90625 -8.578125 C 32.195312 -9.253906 33.140625 -10.144531 33.734375 -11.25 L 44.96875 -10.03125 C 44.039062 -6.519531 41.734375 -3.84375 38.046875 -2 C 34.359375 -0.15625 29.847656 0.765625 24.515625 0.765625 Z M 24.265625 -25.71875 C 21.085938 -25.71875 18.703125 -25.175781 17.109375 -24.09375 C 15.523438 -23.019531 14.566406 -21.722656 14.234375 -20.203125 L 33.859375 -20.203125 C 33.597656 -21.972656 32.671875 -23.332031 31.078125 -24.28125 C 29.492188 -25.238281 27.222656 -25.71875 24.265625 -25.71875 Z M 24.265625 -25.71875 "/></g></g><g transform="translate(159.6788, 253.287183)"><g><path d="M 3.296875 0 L 3.296875 -32.640625 L 15.4375 -32.640625 L 15.4375 -28.140625 C 16.914062 -29.960938 18.773438 -31.296875 21.015625 -32.140625 C 23.265625 -32.984375 25.597656 -33.40625 28.015625 -33.40625 C 28.472656 -33.40625 29.019531 -33.382812 29.65625 -33.34375 C 30.289062 -33.300781 30.992188 -33.21875 31.765625 -33.09375 L 31.765625 -23.625 C 30.617188 -23.75 29.332031 -23.851562 27.90625 -23.9375 C 26.488281 -24.03125 25.0625 -24.007812 23.625 -23.875 C 22.1875 -23.75 20.863281 -23.441406 19.65625 -22.953125 C 18.445312 -22.472656 17.472656 -21.703125 16.734375 -20.640625 C 15.992188 -19.585938 15.625 -18.148438 15.625 -16.328125 L 15.625 0 Z M 3.296875 0 "/></g></g><g transform="translate(192.3274, 253.287183)"><g><path d="M 8.765625 0 L 8.765625 -24.578125 L 0.953125 -24.578125 L 0.953125 -32.640625 L 8.765625 -32.640625 C 8.929688 -37.046875 10.59375 -40.347656 13.75 -42.546875 C 16.90625 -44.753906 21.128906 -45.859375 26.421875 -45.859375 C 29.722656 -45.859375 33.195312 -45.4375 36.84375 -44.59375 L 36.84375 -37.15625 C 35.394531 -37.363281 33.921875 -37.539062 32.421875 -37.6875 C 30.921875 -37.84375 29.554688 -37.921875 28.328125 -37.921875 C 27.054688 -37.921875 25.867188 -37.800781 24.765625 -37.5625 C 23.671875 -37.332031 22.785156 -36.867188 22.109375 -36.171875 C 21.429688 -35.472656 21.09375 -34.445312 21.09375 -33.09375 L 21.09375 -32.640625 L 35 -32.640625 L 35 -24.578125 L 21.09375 -24.578125 L 21.09375 0 Z M 8.765625 0 "/></g></g><g transform="translate(228.024896, 253.287183)"><g><path d="M 3.296875 0 L 3.296875 -45.09375 L 15.625 -45.09375 L 15.625 0 Z M 3.296875 0 "/></g></g><g transform="translate(246.953461, 253.287183)"><g><path d="M 24.078125 0.765625 C 21.148438 0.765625 18.351562 0.394531 15.6875 -0.34375 C 13.019531 -1.082031 10.640625 -2.171875 8.546875 -3.609375 C 6.453125 -5.054688 4.800781 -6.835938 3.59375 -8.953125 C 2.382812 -11.066406 1.78125 -13.523438 1.78125 -16.328125 C 1.78125 -20.046875 2.765625 -23.175781 4.734375 -25.71875 C 6.703125 -28.257812 9.378906 -30.175781 12.765625 -31.46875 C 16.148438 -32.757812 19.921875 -33.40625 24.078125 -33.40625 C 28.222656 -33.40625 31.976562 -32.757812 35.34375 -31.46875 C 38.707031 -30.175781 41.375 -28.257812 43.34375 -25.71875 C 45.3125 -23.175781 46.296875 -20.046875 46.296875 -16.328125 C 46.296875 -13.523438 45.691406 -11.066406 44.484375 -8.953125 C 43.285156 -6.835938 41.632812 -5.054688 39.53125 -3.609375 C 37.4375 -2.171875 35.054688 -1.082031 32.390625 -0.34375 C 29.722656 0.394531 26.953125 0.765625 24.078125 0.765625 Z M 24.078125 -7.625 C 27.035156 -7.625 29.414062 -8.394531 31.21875 -9.9375 C 33.019531 -11.488281 33.921875 -13.507812 33.921875 -16 L 33.921875 -16.640625 C 33.921875 -19.179688 33.019531 -21.210938 31.21875 -22.734375 C 29.414062 -24.265625 27.035156 -25.03125 24.078125 -25.03125 C 21.109375 -25.03125 18.710938 -24.265625 16.890625 -22.734375 C 15.066406 -21.210938 14.15625 -19.179688 14.15625 -16.640625 L 14.15625 -16 C 14.15625 -13.507812 15.066406 -11.488281 16.890625 -9.9375 C 18.710938 -8.394531 21.109375 -7.625 24.078125 -7.625 Z M 24.078125 -7.625 "/></g></g></g><g fill="#03cb8e" fill-opacity="1"><g transform="translate(293.131548, 253.287183)"><g><path d="M 13.140625 0 L 0 -32.640625 L 12.765625 -32.640625 L 20.078125 -10.984375 L 28.140625 -32.640625 L 41.546875 -32.640625 L 49.609375 -10.984375 L 56.90625 -32.640625 L 69.046875 -32.640625 L 55.890625 0 L 43 0 L 34.484375 -22.296875 L 25.921875 0 Z M 13.140625 0 "/></g></g></g></svg>