<svg xmlns="http://www.w3.org/2000/svg" xmlns:xlink="http://www.w3.org/1999/xlink" width="500" zoomAndPan="magnify" viewBox="0 0 375 374.999991" height="500" preserveAspectRatio="xMidYMid meet" version="1.0"><defs><clipPath id="0339b5a724"><path d="M 75 0 L 300 0 C 341.421875 0 375 33.578125 375 75 L 375 300 C 375 341.421875 341.421875 375 300 375 L 75 375 C 33.578125 375 0 341.421875 0 300 L 0 75 C 0 33.578125 33.578125 0 75 0 Z M 75 0 " clip-rule="nonzero"/></clipPath><clipPath id="46645afdf5"><path d="M 98.269531 100.378906 L 276.769531 100.378906 L 276.769531 274.378906 L 98.269531 274.378906 Z M 98.269531 100.378906 " clip-rule="nonzero"/></clipPath></defs><g clip-path="url(#0339b5a724)"><rect x="-37.5" width="450" fill="#121212" y="-37.499999" height="449.999989" fill-opacity="1"/></g><path fill="#82c448" d="M 207.375 154.5 L 168.515625 154.5 C 167.625 154.503906 166.746094 154.589844 165.875 154.765625 C 165.003906 154.9375 164.15625 155.195312 163.335938 155.535156 C 162.515625 155.875 161.738281 156.292969 160.996094 156.785156 C 160.257812 157.28125 159.574219 157.84375 158.949219 158.46875 C 158.320312 159.097656 157.757812 159.78125 157.265625 160.519531 C 156.769531 161.257812 156.355469 162.039062 156.011719 162.859375 C 155.671875 163.679688 155.414062 164.527344 155.242188 165.398438 C 155.066406 166.269531 154.980469 167.148438 154.980469 168.035156 L 154.980469 206.898438 C 154.980469 207.785156 155.070312 208.664062 155.246094 209.535156 C 155.417969 210.40625 155.675781 211.25 156.015625 212.070312 C 156.359375 212.890625 156.777344 213.671875 157.269531 214.40625 C 157.761719 215.144531 158.324219 215.828125 158.953125 216.457031 C 159.582031 217.082031 160.265625 217.644531 161.003906 218.136719 C 161.742188 218.628906 162.519531 219.046875 163.339844 219.386719 C 164.160156 219.726562 165.003906 219.984375 165.875 220.15625 C 166.746094 220.332031 167.625 220.417969 168.515625 220.417969 L 207.375 220.417969 C 208.265625 220.417969 209.144531 220.332031 210.015625 220.15625 C 210.886719 219.984375 211.734375 219.726562 212.554688 219.386719 C 213.375 219.042969 214.152344 218.628906 214.890625 218.132812 C 215.628906 217.640625 216.3125 217.078125 216.941406 216.449219 C 217.570312 215.824219 218.132812 215.140625 218.625 214.402344 C 219.117188 213.660156 219.535156 212.882812 219.875 212.0625 C 220.21875 211.242188 220.472656 210.394531 220.648438 209.523438 C 220.820312 208.652344 220.910156 207.773438 220.910156 206.882812 L 220.910156 168.035156 C 220.910156 167.148438 220.820312 166.269531 220.648438 165.398438 C 220.472656 164.527344 220.21875 163.679688 219.875 162.859375 C 219.535156 162.039062 219.117188 161.257812 218.625 160.519531 C 218.132812 159.78125 217.570312 159.097656 216.941406 158.46875 C 216.3125 157.84375 215.628906 157.28125 214.890625 156.785156 C 214.152344 156.292969 213.375 155.875 212.554688 155.535156 C 211.734375 155.195312 210.886719 154.9375 210.015625 154.765625 C 209.144531 154.589844 208.265625 154.503906 207.375 154.5 Z M 215.292969 206.898438 C 215.292969 207.417969 215.242188 207.933594 215.140625 208.441406 C 215.039062 208.953125 214.886719 209.445312 214.6875 209.925781 C 214.488281 210.40625 214.246094 210.863281 213.957031 211.292969 C 213.667969 211.726562 213.339844 212.125 212.972656 212.492188 C 212.605469 212.859375 212.203125 213.1875 211.773438 213.476562 C 211.339844 213.765625 210.882812 214.011719 210.402344 214.210938 C 209.925781 214.410156 209.429688 214.558594 208.921875 214.664062 C 208.410156 214.765625 207.894531 214.816406 207.375 214.816406 L 168.515625 214.816406 C 167.996094 214.816406 167.480469 214.765625 166.96875 214.664062 C 166.460938 214.558594 165.964844 214.410156 165.484375 214.210938 C 165.003906 214.011719 164.550781 213.765625 164.117188 213.476562 C 163.6875 213.1875 163.285156 212.859375 162.917969 212.492188 C 162.550781 212.125 162.222656 211.726562 161.933594 211.292969 C 161.644531 210.863281 161.402344 210.40625 161.203125 209.925781 C 161.003906 209.445312 160.851562 208.953125 160.75 208.441406 C 160.648438 207.933594 160.597656 207.417969 160.59375 206.898438 L 160.59375 168.035156 C 160.597656 167.515625 160.648438 167 160.75 166.492188 C 160.851562 165.984375 161.003906 165.488281 161.203125 165.007812 C 161.402344 164.527344 161.644531 164.070312 161.933594 163.640625 C 162.222656 163.207031 162.550781 162.808594 162.917969 162.441406 C 163.285156 162.074219 163.6875 161.746094 164.117188 161.457031 C 164.550781 161.167969 165.003906 160.921875 165.484375 160.722656 C 165.964844 160.523438 166.460938 160.375 166.96875 160.273438 C 167.480469 160.171875 167.996094 160.117188 168.515625 160.117188 L 207.375 160.117188 C 207.894531 160.117188 208.410156 160.171875 208.921875 160.273438 C 209.429688 160.375 209.925781 160.523438 210.402344 160.722656 C 210.882812 160.921875 211.339844 161.167969 211.773438 161.457031 C 212.203125 161.746094 212.605469 162.074219 212.972656 162.441406 C 213.339844 162.808594 213.667969 163.207031 213.957031 163.640625 C 214.246094 164.070312 214.488281 164.527344 214.6875 165.007812 C 214.886719 165.488281 215.039062 165.984375 215.140625 166.492188 C 215.242188 167 215.292969 167.515625 215.292969 168.035156 Z M 215.292969 206.898438 " fill-opacity="1" fill-rule="nonzero"/><g clip-path="url(#46645afdf5)"><path fill="#82c448" d="M 244.035156 156.496094 L 258.675781 156.496094 C 258.789062 156.839844 258.917969 157.171875 259.070312 157.5 C 259.21875 157.828125 259.386719 158.144531 259.574219 158.453125 C 259.761719 158.761719 259.96875 159.054688 260.191406 159.339844 C 260.410156 159.621094 260.652344 159.890625 260.90625 160.148438 C 261.160156 160.402344 261.425781 160.640625 261.710938 160.867188 C 261.992188 161.089844 262.285156 161.296875 262.59375 161.484375 C 262.898438 161.671875 263.21875 161.84375 263.542969 161.992188 C 263.871094 162.144531 264.207031 162.277344 264.546875 162.390625 C 264.890625 162.5 265.238281 162.59375 265.589844 162.664062 C 265.945312 162.734375 266.300781 162.785156 266.660156 162.8125 C 267.019531 162.839844 267.378906 162.847656 267.738281 162.835938 C 268.097656 162.820312 268.457031 162.785156 268.8125 162.730469 C 269.167969 162.675781 269.519531 162.597656 269.867188 162.5 C 270.210938 162.402344 270.550781 162.285156 270.886719 162.148438 C 271.21875 162.011719 271.542969 161.855469 271.855469 161.679688 C 272.171875 161.503906 272.472656 161.308594 272.765625 161.097656 C 273.054688 160.886719 273.335938 160.65625 273.597656 160.414062 C 273.863281 160.167969 274.113281 159.910156 274.347656 159.636719 C 274.582031 159.363281 274.796875 159.078125 275 158.777344 C 275.199219 158.476562 275.382812 158.167969 275.546875 157.847656 C 275.707031 157.527344 275.851562 157.195312 275.976562 156.859375 C 276.101562 156.519531 276.207031 156.175781 276.289062 155.828125 C 276.375 155.476562 276.4375 155.121094 276.480469 154.765625 C 276.523438 154.40625 276.542969 154.046875 276.542969 153.6875 C 276.542969 153.328125 276.523438 152.96875 276.480469 152.609375 C 276.4375 152.253906 276.375 151.898438 276.289062 151.546875 C 276.207031 151.199219 276.101562 150.855469 275.976562 150.515625 C 275.851562 150.179688 275.707031 149.847656 275.546875 149.527344 C 275.382812 149.207031 275.199219 148.898438 275 148.597656 C 274.796875 148.296875 274.582031 148.011719 274.347656 147.738281 C 274.113281 147.464844 273.863281 147.207031 273.597656 146.960938 C 273.335938 146.71875 273.054688 146.488281 272.765625 146.277344 C 272.472656 146.066406 272.171875 145.871094 271.855469 145.695312 C 271.542969 145.519531 271.21875 145.363281 270.886719 145.226562 C 270.550781 145.089844 270.210938 144.972656 269.867188 144.875 C 269.519531 144.777344 269.167969 144.699219 268.8125 144.644531 C 268.457031 144.589844 268.097656 144.554688 267.738281 144.539062 C 267.378906 144.527344 267.019531 144.535156 266.660156 144.5625 C 266.300781 144.589844 265.945312 144.640625 265.589844 144.710938 C 265.238281 144.78125 264.890625 144.875 264.546875 144.984375 C 264.207031 145.097656 263.871094 145.230469 263.542969 145.378906 C 263.21875 145.53125 262.898438 145.703125 262.59375 145.890625 C 262.285156 146.078125 261.992188 146.285156 261.710938 146.507812 C 261.425781 146.734375 261.160156 146.972656 260.90625 147.226562 C 260.652344 147.484375 260.410156 147.753906 260.191406 148.035156 C 259.96875 148.320312 259.761719 148.613281 259.574219 148.921875 C 259.386719 149.230469 259.21875 149.546875 259.070312 149.875 C 258.917969 150.203125 258.789062 150.535156 258.675781 150.878906 L 244.035156 150.878906 L 244.035156 148.605469 C 244.03125 147.71875 243.945312 146.839844 243.773438 145.96875 C 243.597656 145.097656 243.34375 144.253906 243.003906 143.433594 C 242.664062 142.613281 242.246094 141.835938 241.753906 141.097656 C 241.261719 140.359375 240.703125 139.675781 240.074219 139.046875 C 239.449219 138.421875 238.765625 137.859375 238.03125 137.367188 C 237.292969 136.871094 236.515625 136.453125 235.695312 136.113281 C 234.878906 135.769531 234.03125 135.511719 233.164062 135.335938 C 232.292969 135.164062 231.414062 135.074219 230.527344 135.070312 L 223.351562 135.070312 L 223.351562 118.222656 C 223.695312 118.113281 224.03125 117.980469 224.359375 117.832031 C 224.6875 117.683594 225.007812 117.511719 225.316406 117.324219 C 225.625 117.136719 225.917969 116.933594 226.203125 116.710938 C 226.488281 116.488281 226.757812 116.25 227.011719 115.992188 C 227.269531 115.738281 227.507812 115.46875 227.730469 115.1875 C 227.957031 114.90625 228.164062 114.609375 228.351562 114.300781 C 228.542969 113.996094 228.710938 113.679688 228.863281 113.351562 C 229.015625 113.023438 229.148438 112.6875 229.257812 112.34375 C 229.371094 112.003906 229.464844 111.652344 229.535156 111.300781 C 229.605469 110.945312 229.65625 110.589844 229.683594 110.230469 C 229.714844 109.871094 229.71875 109.511719 229.707031 109.148438 C 229.691406 108.789062 229.660156 108.429688 229.601562 108.074219 C 229.546875 107.71875 229.46875 107.367188 229.371094 107.019531 C 229.273438 106.671875 229.15625 106.332031 229.019531 105.996094 C 228.882812 105.664062 228.726562 105.339844 228.550781 105.023438 C 228.375 104.710938 228.179688 104.40625 227.96875 104.113281 C 227.757812 103.820312 227.527344 103.542969 227.28125 103.277344 C 227.039062 103.011719 226.777344 102.761719 226.503906 102.527344 C 226.230469 102.292969 225.945312 102.078125 225.644531 101.875 C 225.34375 101.675781 225.03125 101.492188 224.710938 101.328125 C 224.390625 101.164062 224.058594 101.019531 223.722656 100.894531 C 223.382812 100.769531 223.039062 100.664062 222.6875 100.582031 C 222.335938 100.496094 221.984375 100.433594 221.625 100.390625 C 221.265625 100.347656 220.90625 100.328125 220.546875 100.328125 C 220.183594 100.328125 219.824219 100.347656 219.464844 100.390625 C 219.109375 100.433594 218.753906 100.496094 218.402344 100.582031 C 218.050781 100.664062 217.707031 100.769531 217.371094 100.894531 C 217.03125 101.019531 216.699219 101.164062 216.378906 101.328125 C 216.058594 101.492188 215.746094 101.675781 215.449219 101.875 C 215.148438 102.078125 214.859375 102.292969 214.585938 102.527344 C 214.3125 102.761719 214.050781 103.011719 213.808594 103.277344 C 213.5625 103.542969 213.335938 103.820312 213.125 104.113281 C 212.910156 104.40625 212.71875 104.710938 212.542969 105.023438 C 212.367188 105.339844 212.207031 105.664062 212.070312 105.996094 C 211.933594 106.332031 211.816406 106.671875 211.71875 107.019531 C 211.621094 107.367188 211.542969 107.71875 211.488281 108.074219 C 211.433594 108.429688 211.398438 108.789062 211.382812 109.148438 C 211.371094 109.511719 211.378906 109.871094 211.40625 110.230469 C 211.4375 110.589844 211.484375 110.945312 211.558594 111.300781 C 211.628906 111.652344 211.71875 112.003906 211.832031 112.34375 C 211.945312 112.6875 212.074219 113.023438 212.226562 113.351562 C 212.378906 113.679688 212.550781 113.996094 212.738281 114.300781 C 212.929688 114.609375 213.132812 114.90625 213.359375 115.1875 C 213.582031 115.46875 213.824219 115.738281 214.078125 115.992188 C 214.335938 116.25 214.605469 116.488281 214.886719 116.710938 C 215.171875 116.933594 215.46875 117.136719 215.777344 117.324219 C 216.082031 117.511719 216.402344 117.683594 216.730469 117.832031 C 217.058594 117.980469 217.394531 118.113281 217.738281 118.222656 L 217.738281 135.070312 L 201.480469 135.070312 L 201.480469 118.222656 C 201.820312 118.113281 202.15625 117.980469 202.484375 117.832031 C 202.8125 117.683594 203.128906 117.511719 203.4375 117.324219 C 203.746094 117.136719 204.039062 116.933594 204.324219 116.710938 C 204.605469 116.488281 204.875 116.25 205.132812 115.996094 C 205.386719 115.742188 205.625 115.472656 205.847656 115.191406 C 206.074219 114.910156 206.277344 114.613281 206.46875 114.308594 C 206.65625 114 206.828125 113.683594 206.976562 113.355469 C 207.128906 113.03125 207.261719 112.695312 207.371094 112.351562 C 207.484375 112.011719 207.574219 111.664062 207.648438 111.308594 C 207.71875 110.957031 207.765625 110.601562 207.796875 110.242188 C 207.824219 109.882812 207.832031 109.523438 207.820312 109.164062 C 207.804688 108.800781 207.769531 108.445312 207.714844 108.089844 C 207.660156 107.734375 207.582031 107.382812 207.484375 107.035156 C 207.386719 106.6875 207.269531 106.347656 207.132812 106.015625 C 206.996094 105.683594 206.835938 105.359375 206.664062 105.042969 C 206.488281 104.730469 206.292969 104.425781 206.082031 104.136719 C 205.871094 103.84375 205.640625 103.566406 205.398438 103.300781 C 205.152344 103.035156 204.894531 102.785156 204.621094 102.554688 C 204.347656 102.320312 204.058594 102.101562 203.761719 101.902344 C 203.460938 101.703125 203.152344 101.519531 202.832031 101.355469 C 202.507812 101.191406 202.179688 101.046875 201.84375 100.921875 C 201.503906 100.796875 201.160156 100.695312 200.808594 100.609375 C 200.460938 100.527344 200.105469 100.460938 199.75 100.417969 C 199.390625 100.378906 199.03125 100.355469 198.671875 100.355469 C 198.3125 100.355469 197.953125 100.378906 197.59375 100.417969 C 197.238281 100.460938 196.882812 100.527344 196.53125 100.609375 C 196.183594 100.695312 195.839844 100.796875 195.5 100.921875 C 195.164062 101.046875 194.832031 101.191406 194.511719 101.355469 C 194.191406 101.519531 193.882812 101.703125 193.582031 101.902344 C 193.28125 102.101562 192.996094 102.320312 192.722656 102.554688 C 192.449219 102.785156 192.1875 103.035156 191.945312 103.300781 C 191.699219 103.566406 191.472656 103.84375 191.261719 104.136719 C 191.050781 104.425781 190.855469 104.730469 190.679688 105.042969 C 190.503906 105.359375 190.347656 105.683594 190.210938 106.015625 C 190.074219 106.347656 189.957031 106.6875 189.859375 107.035156 C 189.761719 107.382812 189.683594 107.734375 189.628906 108.089844 C 189.574219 108.445312 189.539062 108.800781 189.523438 109.164062 C 189.511719 109.523438 189.519531 109.882812 189.546875 110.242188 C 189.574219 110.601562 189.625 110.957031 189.695312 111.308594 C 189.765625 111.664062 189.859375 112.011719 189.96875 112.351562 C 190.082031 112.695312 190.214844 113.03125 190.363281 113.355469 C 190.515625 113.683594 190.6875 114 190.875 114.308594 C 191.0625 114.613281 191.269531 114.910156 191.492188 115.191406 C 191.71875 115.472656 191.957031 115.742188 192.210938 115.996094 C 192.464844 116.25 192.734375 116.488281 193.019531 116.710938 C 193.300781 116.933594 193.597656 117.136719 193.90625 117.324219 C 194.214844 117.511719 194.53125 117.683594 194.859375 117.832031 C 195.183594 117.980469 195.519531 118.113281 195.863281 118.222656 L 195.863281 135.070312 L 177.613281 135.070312 L 177.613281 118.222656 C 177.953125 118.113281 178.289062 117.980469 178.617188 117.832031 C 178.945312 117.683594 179.261719 117.511719 179.570312 117.324219 C 179.878906 117.136719 180.171875 116.933594 180.457031 116.710938 C 180.738281 116.488281 181.007812 116.25 181.261719 115.996094 C 181.519531 115.742188 181.757812 115.472656 181.980469 115.191406 C 182.207031 114.910156 182.410156 114.613281 182.601562 114.308594 C 182.789062 114 182.957031 113.683594 183.109375 113.355469 C 183.261719 113.03125 183.394531 112.695312 183.503906 112.351562 C 183.617188 112.011719 183.707031 111.664062 183.777344 111.308594 C 183.851562 110.957031 183.898438 110.601562 183.929688 110.242188 C 183.957031 109.882812 183.964844 109.523438 183.949219 109.164062 C 183.9375 108.800781 183.902344 108.445312 183.847656 108.089844 C 183.789062 107.734375 183.714844 107.382812 183.617188 107.035156 C 183.519531 106.6875 183.402344 106.347656 183.265625 106.015625 C 183.125 105.683594 182.96875 105.359375 182.792969 105.042969 C 182.617188 104.730469 182.425781 104.425781 182.214844 104.136719 C 182.003906 103.84375 181.773438 103.566406 181.53125 103.300781 C 181.285156 103.035156 181.027344 102.785156 180.753906 102.554688 C 180.480469 102.320312 180.191406 102.101562 179.894531 101.902344 C 179.59375 101.703125 179.285156 101.519531 178.960938 101.355469 C 178.640625 101.191406 178.3125 101.046875 177.972656 100.921875 C 177.636719 100.796875 177.292969 100.695312 176.941406 100.609375 C 176.59375 100.527344 176.238281 100.460938 175.878906 100.417969 C 175.523438 100.378906 175.164062 100.355469 174.804688 100.355469 C 174.445312 100.355469 174.085938 100.378906 173.726562 100.417969 C 173.367188 100.460938 173.015625 100.527344 172.664062 100.609375 C 172.316406 100.695312 171.96875 100.796875 171.632812 100.921875 C 171.292969 101.046875 170.964844 101.191406 170.644531 101.355469 C 170.324219 101.519531 170.011719 101.703125 169.714844 101.902344 C 169.414062 102.101562 169.128906 102.320312 168.855469 102.554688 C 168.582031 102.785156 168.320312 103.035156 168.078125 103.300781 C 167.832031 103.566406 167.605469 103.84375 167.394531 104.136719 C 167.183594 104.425781 166.988281 104.730469 166.8125 105.042969 C 166.636719 105.359375 166.480469 105.683594 166.34375 106.015625 C 166.207031 106.347656 166.089844 106.6875 165.992188 107.035156 C 165.894531 107.382812 165.816406 107.734375 165.761719 108.089844 C 165.703125 108.445312 165.671875 108.800781 165.65625 109.164062 C 165.644531 109.523438 165.648438 109.882812 165.679688 110.242188 C 165.707031 110.601562 165.757812 110.957031 165.828125 111.308594 C 165.898438 111.664062 165.992188 112.011719 166.101562 112.351562 C 166.214844 112.695312 166.34375 113.03125 166.496094 113.355469 C 166.648438 113.683594 166.820312 114 167.007812 114.308594 C 167.195312 114.613281 167.402344 114.910156 167.625 115.191406 C 167.847656 115.472656 168.089844 115.742188 168.34375 115.996094 C 168.597656 116.25 168.867188 116.488281 169.152344 116.710938 C 169.433594 116.933594 169.730469 117.136719 170.039062 117.324219 C 170.34375 117.511719 170.664062 117.683594 170.992188 117.832031 C 171.316406 117.980469 171.652344 118.113281 171.996094 118.222656 L 171.996094 135.070312 L 155.75 135.070312 L 155.75 118.222656 C 156.09375 118.113281 156.429688 117.980469 156.757812 117.832031 C 157.085938 117.683594 157.402344 117.511719 157.710938 117.324219 C 158.015625 117.136719 158.3125 116.933594 158.597656 116.710938 C 158.878906 116.488281 159.148438 116.25 159.402344 115.996094 C 159.660156 115.742188 159.898438 115.472656 160.121094 115.191406 C 160.34375 114.910156 160.550781 114.613281 160.738281 114.308594 C 160.929688 114 161.097656 113.683594 161.25 113.355469 C 161.402344 113.03125 161.535156 112.695312 161.644531 112.351562 C 161.757812 112.011719 161.847656 111.664062 161.917969 111.308594 C 161.988281 110.957031 162.039062 110.601562 162.070312 110.242188 C 162.097656 109.882812 162.105469 109.523438 162.089844 109.164062 C 162.078125 108.800781 162.042969 108.445312 161.988281 108.089844 C 161.929688 107.734375 161.855469 107.382812 161.757812 107.035156 C 161.660156 106.6875 161.542969 106.347656 161.402344 106.015625 C 161.265625 105.683594 161.109375 105.359375 160.933594 105.042969 C 160.757812 104.730469 160.566406 104.425781 160.355469 104.136719 C 160.140625 103.84375 159.914062 103.566406 159.667969 103.300781 C 159.425781 103.035156 159.167969 102.785156 158.894531 102.554688 C 158.617188 102.320312 158.332031 102.101562 158.03125 101.902344 C 157.734375 101.703125 157.421875 101.519531 157.101562 101.355469 C 156.78125 101.191406 156.453125 101.046875 156.113281 100.921875 C 155.777344 100.796875 155.433594 100.695312 155.082031 100.609375 C 154.730469 100.527344 154.378906 100.460938 154.019531 100.417969 C 153.664062 100.378906 153.304688 100.355469 152.945312 100.355469 C 152.582031 100.355469 152.222656 100.378906 151.867188 100.417969 C 151.507812 100.460938 151.15625 100.527344 150.804688 100.609375 C 150.453125 100.695312 150.109375 100.796875 149.773438 100.921875 C 149.433594 101.046875 149.105469 101.191406 148.785156 101.355469 C 148.464844 101.519531 148.152344 101.703125 147.855469 101.902344 C 147.554688 102.101562 147.269531 102.320312 146.996094 102.554688 C 146.71875 102.785156 146.460938 103.035156 146.21875 103.300781 C 145.972656 103.566406 145.746094 103.84375 145.535156 104.136719 C 145.320312 104.425781 145.128906 104.730469 144.953125 105.042969 C 144.777344 105.359375 144.621094 105.683594 144.484375 106.015625 C 144.34375 106.347656 144.226562 106.6875 144.128906 107.035156 C 144.035156 107.382812 143.957031 107.734375 143.902344 108.089844 C 143.84375 108.445312 143.808594 108.800781 143.796875 109.164062 C 143.78125 109.523438 143.789062 109.882812 143.820312 110.242188 C 143.847656 110.601562 143.898438 110.957031 143.96875 111.308594 C 144.039062 111.664062 144.128906 112.011719 144.242188 112.351562 C 144.355469 112.695312 144.484375 113.03125 144.636719 113.355469 C 144.789062 113.683594 144.957031 114 145.148438 114.308594 C 145.335938 114.613281 145.542969 114.910156 145.765625 115.191406 C 145.988281 115.472656 146.226562 115.742188 146.484375 115.996094 C 146.738281 116.25 147.007812 116.488281 147.292969 116.710938 C 147.574219 116.933594 147.871094 117.136719 148.179688 117.324219 C 148.484375 117.511719 148.804688 117.683594 149.128906 117.832031 C 149.457031 117.980469 149.792969 118.113281 150.136719 118.222656 L 150.136719 135.070312 L 145.390625 135.070312 C 144.5 135.070312 143.621094 135.160156 142.75 135.332031 C 141.878906 135.507812 141.035156 135.765625 140.214844 136.105469 C 139.390625 136.445312 138.613281 136.863281 137.875 137.355469 C 137.136719 137.851562 136.453125 138.410156 135.824219 139.039062 C 135.195312 139.667969 134.636719 140.351562 134.140625 141.089844 C 133.648438 141.828125 133.230469 142.605469 132.890625 143.429688 C 132.550781 144.25 132.292969 145.09375 132.117188 145.964844 C 131.945312 146.835938 131.855469 147.714844 131.855469 148.605469 L 131.855469 150.878906 L 116.242188 150.878906 C 116.132812 150.535156 116.003906 150.203125 115.851562 149.875 C 115.703125 149.546875 115.535156 149.230469 115.347656 148.921875 C 115.160156 148.613281 114.953125 148.320312 114.730469 148.035156 C 114.507812 147.753906 114.269531 147.484375 114.015625 147.226562 C 113.761719 146.972656 113.492188 146.734375 113.210938 146.507812 C 112.929688 146.285156 112.632812 146.078125 112.328125 145.890625 C 112.019531 145.703125 111.703125 145.53125 111.378906 145.378906 C 111.050781 145.230469 110.714844 145.097656 110.375 144.984375 C 110.03125 144.875 109.683594 144.78125 109.328125 144.710938 C 108.976562 144.640625 108.621094 144.589844 108.261719 144.5625 C 107.902344 144.535156 107.542969 144.527344 107.183594 144.539062 C 106.824219 144.554688 106.464844 144.589844 106.109375 144.644531 C 105.753906 144.699219 105.402344 144.777344 105.054688 144.875 C 104.707031 144.972656 104.367188 145.089844 104.035156 145.226562 C 103.703125 145.363281 103.378906 145.519531 103.066406 145.695312 C 102.75 145.871094 102.449219 146.066406 102.15625 146.277344 C 101.863281 146.488281 101.585938 146.71875 101.320312 146.960938 C 101.058594 147.207031 100.808594 147.464844 100.574219 147.738281 C 100.339844 148.011719 100.121094 148.296875 99.921875 148.597656 C 99.722656 148.898438 99.539062 149.207031 99.375 149.527344 C 99.210938 149.847656 99.070312 150.179688 98.945312 150.515625 C 98.820312 150.855469 98.714844 151.199219 98.628906 151.546875 C 98.546875 151.898438 98.484375 152.253906 98.441406 152.609375 C 98.398438 152.96875 98.375 153.328125 98.375 153.6875 C 98.375 154.046875 98.398438 154.40625 98.441406 154.765625 C 98.484375 155.121094 98.546875 155.476562 98.628906 155.828125 C 98.714844 156.175781 98.820312 156.519531 98.945312 156.859375 C 99.070312 157.195312 99.210938 157.527344 99.375 157.847656 C 99.539062 158.167969 99.722656 158.476562 99.921875 158.777344 C 100.121094 159.078125 100.339844 159.363281 100.574219 159.636719 C 100.808594 159.910156 101.058594 160.167969 101.320312 160.414062 C 101.585938 160.65625 101.863281 160.886719 102.15625 161.097656 C 102.449219 161.308594 102.75 161.503906 103.066406 161.679688 C 103.378906 161.855469 103.703125 162.011719 104.035156 162.148438 C 104.367188 162.285156 104.707031 162.402344 105.054688 162.5 C 105.402344 162.597656 105.753906 162.675781 106.109375 162.730469 C 106.464844 162.785156 106.824219 162.820312 107.183594 162.835938 C 107.542969 162.847656 107.902344 162.839844 108.261719 162.8125 C 108.621094 162.785156 108.976562 162.734375 109.328125 162.664062 C 109.683594 162.59375 110.03125 162.5 110.375 162.390625 C 110.714844 162.277344 111.050781 162.144531 111.378906 161.992188 C 111.703125 161.84375 112.019531 161.671875 112.328125 161.484375 C 112.632812 161.296875 112.929688 161.089844 113.210938 160.867188 C 113.492188 160.640625 113.761719 160.402344 114.015625 160.148438 C 114.269531 159.890625 114.507812 159.621094 114.730469 159.339844 C 114.953125 159.054688 115.160156 158.761719 115.347656 158.453125 C 115.535156 158.144531 115.703125 157.828125 115.851562 157.5 C 116.003906 157.171875 116.132812 156.839844 116.242188 156.496094 L 131.855469 156.496094 L 131.855469 172.683594 L 116.242188 172.683594 C 116.132812 172.339844 116.003906 172.003906 115.851562 171.675781 C 115.703125 171.347656 115.535156 171.03125 115.347656 170.722656 C 115.15625 170.414062 114.953125 170.117188 114.730469 169.832031 C 114.507812 169.550781 114.269531 169.28125 114.015625 169.023438 C 113.761719 168.769531 113.492188 168.527344 113.207031 168.304688 C 112.925781 168.082031 112.628906 167.875 112.324219 167.683594 C 112.015625 167.496094 111.699219 167.324219 111.371094 167.171875 C 111.042969 167.023438 110.707031 166.890625 110.367188 166.777344 C 110.023438 166.664062 109.675781 166.574219 109.320312 166.503906 C 108.96875 166.433594 108.609375 166.382812 108.25 166.351562 C 107.890625 166.324219 107.53125 166.316406 107.171875 166.328125 C 106.808594 166.34375 106.453125 166.378906 106.09375 166.433594 C 105.738281 166.488281 105.386719 166.566406 105.039062 166.664062 C 104.691406 166.761719 104.351562 166.878906 104.019531 167.015625 C 103.683594 167.15625 103.359375 167.3125 103.046875 167.488281 C 102.730469 167.664062 102.425781 167.855469 102.132812 168.070312 C 101.84375 168.28125 101.5625 168.507812 101.296875 168.753906 C 101.035156 169 100.785156 169.257812 100.550781 169.53125 C 100.3125 169.804688 100.097656 170.09375 99.894531 170.394531 C 99.695312 170.691406 99.511719 171.003906 99.347656 171.324219 C 99.183594 171.648438 99.039062 171.976562 98.914062 172.316406 C 98.789062 172.652344 98.6875 173 98.601562 173.347656 C 98.519531 173.699219 98.453125 174.054688 98.410156 174.414062 C 98.371094 174.769531 98.347656 175.128906 98.347656 175.492188 C 98.347656 175.851562 98.371094 176.210938 98.410156 176.570312 C 98.453125 176.929688 98.519531 177.28125 98.601562 177.632812 C 98.6875 177.984375 98.789062 178.328125 98.914062 178.667969 C 99.039062 179.007812 99.183594 179.335938 99.347656 179.65625 C 99.511719 179.980469 99.695312 180.289062 99.894531 180.589844 C 100.097656 180.890625 100.3125 181.175781 100.550781 181.449219 C 100.785156 181.726562 101.035156 181.984375 101.296875 182.230469 C 101.5625 182.472656 101.84375 182.703125 102.132812 182.914062 C 102.425781 183.125 102.730469 183.320312 103.046875 183.496094 C 103.359375 183.671875 103.683594 183.828125 104.019531 183.964844 C 104.351562 184.101562 104.691406 184.222656 105.039062 184.320312 C 105.386719 184.414062 105.738281 184.492188 106.09375 184.546875 C 106.453125 184.605469 106.808594 184.640625 107.171875 184.652344 C 107.53125 184.667969 107.890625 184.660156 108.25 184.628906 C 108.609375 184.601562 108.96875 184.550781 109.320312 184.480469 C 109.675781 184.410156 110.023438 184.316406 110.367188 184.207031 C 110.707031 184.09375 111.042969 183.960938 111.371094 183.808594 C 111.699219 183.65625 112.015625 183.488281 112.324219 183.296875 C 112.628906 183.109375 112.925781 182.902344 113.207031 182.679688 C 113.492188 182.453125 113.761719 182.214844 114.015625 181.957031 C 114.269531 181.703125 114.507812 181.433594 114.730469 181.148438 C 114.953125 180.863281 115.15625 180.570312 115.347656 180.261719 C 115.535156 179.953125 115.703125 179.632812 115.851562 179.304688 C 116.003906 178.980469 116.132812 178.644531 116.242188 178.300781 L 131.855469 178.300781 L 131.855469 196.550781 L 116.242188 196.550781 C 116.132812 196.207031 116.003906 195.875 115.851562 195.546875 C 115.703125 195.21875 115.535156 194.902344 115.347656 194.59375 C 115.160156 194.285156 114.953125 193.992188 114.730469 193.707031 C 114.507812 193.421875 114.269531 193.15625 114.015625 192.898438 C 113.761719 192.644531 113.492188 192.40625 113.210938 192.179688 C 112.929688 191.957031 112.632812 191.75 112.328125 191.5625 C 112.019531 191.375 111.703125 191.203125 111.378906 191.050781 C 111.050781 190.902344 110.714844 190.769531 110.375 190.65625 C 110.03125 190.546875 109.683594 190.453125 109.328125 190.382812 C 108.976562 190.3125 108.621094 190.261719 108.261719 190.234375 C 107.902344 190.207031 107.542969 190.199219 107.183594 190.210938 C 106.824219 190.226562 106.464844 190.261719 106.109375 190.316406 C 105.753906 190.371094 105.402344 190.449219 105.054688 190.546875 C 104.707031 190.644531 104.367188 190.761719 104.035156 190.898438 C 103.703125 191.035156 103.378906 191.191406 103.066406 191.367188 C 102.75 191.542969 102.449219 191.738281 102.15625 191.949219 C 101.863281 192.160156 101.585938 192.386719 101.320312 192.632812 C 101.058594 192.878906 100.808594 193.136719 100.574219 193.410156 C 100.339844 193.683594 100.121094 193.96875 99.921875 194.269531 C 99.722656 194.570312 99.539062 194.878906 99.375 195.199219 C 99.210938 195.519531 99.070312 195.851562 98.945312 196.1875 C 98.820312 196.527344 98.714844 196.871094 98.628906 197.21875 C 98.546875 197.570312 98.484375 197.925781 98.441406 198.28125 C 98.398438 198.640625 98.375 199 98.375 199.359375 C 98.375 199.71875 98.398438 200.078125 98.441406 200.4375 C 98.484375 200.792969 98.546875 201.148438 98.628906 201.496094 C 98.714844 201.847656 98.820312 202.191406 98.945312 202.53125 C 99.070312 202.867188 99.210938 203.195312 99.375 203.519531 C 99.539062 203.839844 99.722656 204.148438 99.921875 204.449219 C 100.121094 204.746094 100.339844 205.035156 100.574219 205.308594 C 100.808594 205.582031 101.058594 205.839844 101.320312 206.085938 C 101.585938 206.328125 101.863281 206.558594 102.15625 206.769531 C 102.449219 206.980469 102.75 207.175781 103.066406 207.351562 C 103.378906 207.527344 103.703125 207.683594 104.035156 207.820312 C 104.367188 207.957031 104.707031 208.074219 105.054688 208.171875 C 105.402344 208.269531 105.753906 208.347656 106.109375 208.402344 C 106.464844 208.457031 106.824219 208.492188 107.183594 208.507812 C 107.542969 208.519531 107.902344 208.511719 108.261719 208.484375 C 108.621094 208.453125 108.976562 208.40625 109.328125 208.335938 C 109.683594 208.265625 110.03125 208.171875 110.375 208.058594 C 110.714844 207.949219 111.050781 207.816406 111.378906 207.664062 C 111.703125 207.515625 112.019531 207.34375 112.328125 207.15625 C 112.632812 206.96875 112.929688 206.761719 113.210938 206.539062 C 113.492188 206.3125 113.761719 206.074219 114.015625 205.820312 C 114.269531 205.5625 114.507812 205.292969 114.730469 205.011719 C 114.953125 204.726562 115.160156 204.433594 115.347656 204.125 C 115.535156 203.816406 115.703125 203.5 115.851562 203.171875 C 116.003906 202.84375 116.132812 202.511719 116.242188 202.167969 L 131.855469 202.167969 L 131.855469 218.382812 L 116.242188 218.382812 C 116.132812 218.039062 116.003906 217.703125 115.851562 217.378906 C 115.703125 217.050781 115.535156 216.734375 115.347656 216.425781 C 115.160156 216.117188 114.953125 215.820312 114.730469 215.539062 C 114.507812 215.253906 114.269531 214.984375 114.015625 214.730469 C 113.761719 214.476562 113.492188 214.238281 113.210938 214.011719 C 112.929688 213.789062 112.632812 213.582031 112.328125 213.394531 C 112.019531 213.207031 111.703125 213.035156 111.378906 212.882812 C 111.050781 212.734375 110.714844 212.601562 110.375 212.488281 C 110.03125 212.378906 109.683594 212.285156 109.328125 212.214844 C 108.976562 212.144531 108.621094 212.09375 108.261719 212.066406 C 107.902344 212.039062 107.542969 212.03125 107.183594 212.042969 C 106.824219 212.058594 106.464844 212.09375 106.109375 212.148438 C 105.753906 212.203125 105.402344 212.28125 105.054688 212.378906 C 104.707031 212.476562 104.367188 212.59375 104.035156 212.730469 C 103.703125 212.867188 103.378906 213.023438 103.066406 213.199219 C 102.75 213.375 102.449219 213.570312 102.15625 213.78125 C 101.863281 213.992188 101.585938 214.21875 101.320312 214.464844 C 101.058594 214.710938 100.808594 214.96875 100.574219 215.242188 C 100.339844 215.515625 100.121094 215.800781 99.921875 216.101562 C 99.722656 216.402344 99.539062 216.710938 99.375 217.03125 C 99.210938 217.351562 99.070312 217.683594 98.945312 218.019531 C 98.820312 218.359375 98.714844 218.703125 98.628906 219.050781 C 98.546875 219.402344 98.484375 219.757812 98.441406 220.113281 C 98.398438 220.472656 98.375 220.832031 98.375 221.191406 C 98.375 221.550781 98.398438 221.910156 98.441406 222.269531 C 98.484375 222.625 98.546875 222.980469 98.628906 223.328125 C 98.714844 223.679688 98.820312 224.023438 98.945312 224.363281 C 99.070312 224.699219 99.210938 225.027344 99.375 225.351562 C 99.539062 225.671875 99.722656 225.980469 99.921875 226.28125 C 100.121094 226.578125 100.339844 226.867188 100.574219 227.140625 C 100.808594 227.414062 101.058594 227.671875 101.320312 227.917969 C 101.585938 228.160156 101.863281 228.390625 102.15625 228.601562 C 102.449219 228.8125 102.75 229.007812 103.066406 229.183594 C 103.378906 229.359375 103.703125 229.515625 104.035156 229.652344 C 104.367188 229.789062 104.707031 229.90625 105.054688 230.003906 C 105.402344 230.101562 105.753906 230.179688 106.109375 230.234375 C 106.464844 230.289062 106.824219 230.324219 107.183594 230.339844 C 107.542969 230.351562 107.902344 230.34375 108.261719 230.316406 C 108.621094 230.285156 108.976562 230.238281 109.328125 230.167969 C 109.683594 230.09375 110.03125 230.003906 110.375 229.890625 C 110.714844 229.78125 111.050781 229.648438 111.378906 229.496094 C 111.703125 229.347656 112.019531 229.175781 112.328125 228.988281 C 112.632812 228.796875 112.929688 228.59375 113.210938 228.367188 C 113.492188 228.144531 113.761719 227.90625 114.015625 227.652344 C 114.269531 227.394531 114.507812 227.125 114.730469 226.84375 C 114.953125 226.558594 115.160156 226.265625 115.347656 225.957031 C 115.535156 225.648438 115.703125 225.332031 115.851562 225.003906 C 116.003906 224.675781 116.132812 224.34375 116.242188 224 L 131.855469 224 L 131.855469 226.273438 C 131.855469 227.160156 131.945312 228.042969 132.117188 228.914062 C 132.292969 229.785156 132.550781 230.628906 132.890625 231.449219 C 133.230469 232.269531 133.648438 233.050781 134.140625 233.789062 C 134.636719 234.527344 135.195312 235.210938 135.824219 235.839844 C 136.453125 236.46875 137.136719 237.027344 137.875 237.523438 C 138.613281 238.015625 139.390625 238.433594 140.214844 238.773438 C 141.035156 239.113281 141.878906 239.371094 142.75 239.546875 C 143.621094 239.71875 144.5 239.808594 145.390625 239.808594 L 151.355469 239.808594 L 151.355469 256.65625 C 151.015625 256.765625 150.679688 256.894531 150.351562 257.046875 C 150.023438 257.195312 149.707031 257.367188 149.398438 257.554688 C 149.089844 257.742188 148.796875 257.945312 148.511719 258.167969 C 148.230469 258.390625 147.960938 258.628906 147.707031 258.882812 C 147.449219 259.136719 147.210938 259.40625 146.988281 259.6875 C 146.761719 259.96875 146.558594 260.265625 146.367188 260.570312 C 146.179688 260.878906 146.011719 261.195312 145.859375 261.523438 C 145.707031 261.847656 145.574219 262.183594 145.464844 262.527344 C 145.351562 262.867188 145.261719 263.214844 145.191406 263.570312 C 145.117188 263.921875 145.070312 264.277344 145.039062 264.636719 C 145.011719 264.996094 145.003906 265.355469 145.019531 265.714844 C 145.03125 266.074219 145.066406 266.433594 145.121094 266.789062 C 145.179688 267.144531 145.253906 267.496094 145.351562 267.84375 C 145.449219 268.191406 145.566406 268.53125 145.703125 268.863281 C 145.84375 269.195312 146 269.519531 146.175781 269.832031 C 146.351562 270.148438 146.542969 270.453125 146.753906 270.742188 C 146.964844 271.035156 147.195312 271.3125 147.4375 271.578125 C 147.683594 271.84375 147.941406 272.089844 148.214844 272.324219 C 148.488281 272.558594 148.777344 272.777344 149.074219 272.976562 C 149.375 273.175781 149.683594 273.359375 150.007812 273.523438 C 150.328125 273.6875 150.65625 273.832031 150.996094 273.957031 C 151.332031 274.082031 151.675781 274.183594 152.027344 274.269531 C 152.375 274.351562 152.730469 274.417969 153.089844 274.457031 C 153.445312 274.5 153.804688 274.523438 154.164062 274.523438 C 154.523438 274.523438 154.882812 274.5 155.242188 274.457031 C 155.601562 274.417969 155.953125 274.351562 156.304688 274.269531 C 156.652344 274.183594 157 274.082031 157.335938 273.957031 C 157.675781 273.832031 158.003906 273.6875 158.324219 273.523438 C 158.644531 273.359375 158.957031 273.175781 159.253906 272.976562 C 159.554688 272.777344 159.839844 272.558594 160.113281 272.324219 C 160.386719 272.089844 160.648438 271.84375 160.890625 271.578125 C 161.136719 271.3125 161.363281 271.035156 161.574219 270.742188 C 161.785156 270.453125 161.980469 270.148438 162.15625 269.832031 C 162.332031 269.519531 162.488281 269.195312 162.625 268.863281 C 162.761719 268.53125 162.878906 268.191406 162.976562 267.84375 C 163.074219 267.496094 163.152344 267.144531 163.207031 266.789062 C 163.265625 266.433594 163.296875 266.074219 163.3125 265.714844 C 163.324219 265.355469 163.320312 264.996094 163.289062 264.636719 C 163.261719 264.277344 163.210938 263.921875 163.140625 263.570312 C 163.070312 263.214844 162.976562 262.867188 162.867188 262.527344 C 162.753906 262.183594 162.625 261.847656 162.472656 261.523438 C 162.320312 261.195312 162.148438 260.878906 161.960938 260.570312 C 161.773438 260.265625 161.566406 259.96875 161.34375 259.6875 C 161.121094 259.40625 160.878906 259.136719 160.625 258.882812 C 160.371094 258.628906 160.101562 258.390625 159.816406 258.167969 C 159.535156 257.945312 159.238281 257.742188 158.929688 257.554688 C 158.625 257.367188 158.304688 257.195312 157.976562 257.046875 C 157.652344 256.894531 157.316406 256.765625 156.972656 256.65625 L 156.972656 239.808594 L 173.203125 239.808594 L 173.203125 256.65625 C 172.859375 256.765625 172.523438 256.894531 172.199219 257.046875 C 171.871094 257.195312 171.554688 257.367188 171.246094 257.554688 C 170.9375 257.742188 170.640625 257.945312 170.359375 258.167969 C 170.074219 258.390625 169.804688 258.628906 169.550781 258.882812 C 169.296875 259.136719 169.054688 259.40625 168.832031 259.6875 C 168.609375 259.96875 168.402344 260.265625 168.214844 260.570312 C 168.027344 260.878906 167.855469 261.195312 167.703125 261.523438 C 167.554688 261.847656 167.421875 262.183594 167.308594 262.527344 C 167.199219 262.867188 167.105469 263.214844 167.035156 263.570312 C 166.964844 263.921875 166.914062 264.277344 166.886719 264.636719 C 166.859375 264.996094 166.851562 265.355469 166.863281 265.714844 C 166.878906 266.074219 166.914062 266.433594 166.96875 266.789062 C 167.023438 267.144531 167.101562 267.496094 167.199219 267.84375 C 167.296875 268.191406 167.414062 268.53125 167.550781 268.863281 C 167.6875 269.195312 167.84375 269.519531 168.019531 269.832031 C 168.195312 270.148438 168.390625 270.453125 168.601562 270.742188 C 168.8125 271.035156 169.039062 271.3125 169.285156 271.578125 C 169.527344 271.84375 169.789062 272.089844 170.0625 272.324219 C 170.335938 272.558594 170.621094 272.777344 170.921875 272.976562 C 171.222656 273.175781 171.53125 273.359375 171.851562 273.523438 C 172.171875 273.6875 172.503906 273.832031 172.839844 273.957031 C 173.179688 274.082031 173.523438 274.183594 173.871094 274.269531 C 174.222656 274.351562 174.578125 274.417969 174.933594 274.457031 C 175.292969 274.5 175.652344 274.523438 176.011719 274.523438 C 176.371094 274.523438 176.730469 274.5 177.089844 274.457031 C 177.445312 274.417969 177.800781 274.351562 178.148438 274.269531 C 178.5 274.183594 178.84375 274.082031 179.183594 273.957031 C 179.519531 273.832031 179.847656 273.6875 180.171875 273.523438 C 180.492188 273.359375 180.800781 273.175781 181.101562 272.976562 C 181.398438 272.777344 181.6875 272.558594 181.960938 272.324219 C 182.234375 272.089844 182.492188 271.84375 182.738281 271.578125 C 182.980469 271.3125 183.210938 271.035156 183.421875 270.742188 C 183.632812 270.453125 183.828125 270.148438 184 269.832031 C 184.175781 269.519531 184.335938 269.195312 184.472656 268.863281 C 184.609375 268.53125 184.726562 268.191406 184.824219 267.84375 C 184.921875 267.496094 185 267.144531 185.054688 266.789062 C 185.109375 266.433594 185.144531 266.074219 185.160156 265.714844 C 185.171875 265.355469 185.164062 264.996094 185.136719 264.636719 C 185.105469 264.277344 185.058594 263.921875 184.988281 263.570312 C 184.914062 263.214844 184.824219 262.867188 184.710938 262.527344 C 184.601562 262.183594 184.46875 261.847656 184.316406 261.523438 C 184.167969 261.195312 183.996094 260.878906 183.808594 260.570312 C 183.617188 260.265625 183.414062 259.96875 183.1875 259.6875 C 182.964844 259.40625 182.726562 259.136719 182.472656 258.882812 C 182.214844 258.628906 181.945312 258.390625 181.664062 258.167969 C 181.378906 257.945312 181.085938 257.742188 180.777344 257.554688 C 180.46875 257.367188 180.152344 257.195312 179.824219 257.046875 C 179.496094 256.894531 179.160156 256.765625 178.820312 256.65625 L 178.820312 239.808594 L 197.070312 239.808594 L 197.070312 256.65625 C 196.726562 256.765625 196.394531 256.894531 196.066406 257.046875 C 195.738281 257.195312 195.421875 257.367188 195.113281 257.554688 C 194.804688 257.742188 194.511719 257.945312 194.226562 258.167969 C 193.941406 258.390625 193.675781 258.628906 193.417969 258.882812 C 193.164062 259.136719 192.925781 259.40625 192.699219 259.6875 C 192.476562 259.96875 192.269531 260.265625 192.082031 260.570312 C 191.894531 260.878906 191.722656 261.195312 191.570312 261.523438 C 191.421875 261.847656 191.289062 262.183594 191.175781 262.527344 C 191.066406 262.867188 190.972656 263.214844 190.902344 263.570312 C 190.832031 263.921875 190.78125 264.277344 190.753906 264.636719 C 190.726562 264.996094 190.71875 265.355469 190.730469 265.714844 C 190.746094 266.074219 190.78125 266.433594 190.835938 266.789062 C 190.890625 267.144531 190.96875 267.496094 191.066406 267.84375 C 191.164062 268.191406 191.28125 268.53125 191.417969 268.863281 C 191.554688 269.195312 191.710938 269.519531 191.886719 269.832031 C 192.0625 270.148438 192.257812 270.453125 192.46875 270.742188 C 192.679688 271.035156 192.910156 271.3125 193.152344 271.578125 C 193.398438 271.84375 193.65625 272.089844 193.929688 272.324219 C 194.203125 272.558594 194.488281 272.777344 194.789062 272.976562 C 195.089844 273.175781 195.398438 273.359375 195.71875 273.523438 C 196.039062 273.6875 196.371094 273.832031 196.707031 273.957031 C 197.046875 274.082031 197.390625 274.183594 197.738281 274.269531 C 198.089844 274.351562 198.445312 274.417969 198.800781 274.457031 C 199.160156 274.5 199.519531 274.523438 199.878906 274.523438 C 200.238281 274.523438 200.597656 274.5 200.957031 274.457031 C 201.3125 274.417969 201.667969 274.351562 202.015625 274.269531 C 202.367188 274.183594 202.710938 274.082031 203.050781 273.957031 C 203.386719 273.832031 203.71875 273.6875 204.039062 273.523438 C 204.359375 273.359375 204.667969 273.175781 204.96875 272.976562 C 205.269531 272.777344 205.554688 272.558594 205.828125 272.324219 C 206.101562 272.089844 206.359375 271.84375 206.605469 271.578125 C 206.847656 271.3125 207.078125 271.035156 207.289062 270.742188 C 207.5 270.453125 207.695312 270.148438 207.871094 269.832031 C 208.046875 269.519531 208.203125 269.195312 208.339844 268.863281 C 208.476562 268.53125 208.59375 268.191406 208.691406 267.84375 C 208.789062 267.496094 208.867188 267.144531 208.921875 266.789062 C 208.976562 266.433594 209.011719 266.074219 209.027344 265.714844 C 209.039062 265.355469 209.03125 264.996094 209.003906 264.636719 C 208.976562 264.277344 208.925781 263.921875 208.855469 263.570312 C 208.785156 263.214844 208.691406 262.867188 208.582031 262.527344 C 208.46875 262.183594 208.335938 261.847656 208.183594 261.523438 C 208.035156 261.195312 207.863281 260.878906 207.675781 260.570312 C 207.488281 260.265625 207.28125 259.96875 207.058594 259.6875 C 206.832031 259.40625 206.59375 259.136719 206.339844 258.882812 C 206.082031 258.628906 205.8125 258.390625 205.53125 258.167969 C 205.246094 257.945312 204.953125 257.742188 204.644531 257.554688 C 204.335938 257.367188 204.019531 257.195312 203.691406 257.046875 C 203.363281 256.894531 203.03125 256.765625 202.6875 256.65625 L 202.6875 239.808594 L 218.902344 239.808594 L 218.902344 256.65625 C 218.558594 256.765625 218.222656 256.894531 217.894531 257.046875 C 217.566406 257.195312 217.25 257.367188 216.941406 257.554688 C 216.632812 257.742188 216.335938 257.945312 216.054688 258.167969 C 215.769531 258.390625 215.5 258.628906 215.242188 258.882812 C 214.988281 259.140625 214.746094 259.40625 214.523438 259.691406 C 214.300781 259.972656 214.09375 260.269531 213.902344 260.574219 C 213.714844 260.882812 213.542969 261.199219 213.394531 261.527344 C 213.242188 261.855469 213.109375 262.191406 212.996094 262.535156 C 212.882812 262.875 212.792969 263.222656 212.722656 263.578125 C 212.652344 263.933594 212.601562 264.289062 212.570312 264.648438 C 212.542969 265.007812 212.535156 265.367188 212.550781 265.730469 C 212.5625 266.089844 212.597656 266.449219 212.652344 266.804688 C 212.710938 267.160156 212.785156 267.511719 212.882812 267.859375 C 212.980469 268.207031 213.097656 268.546875 213.238281 268.882812 C 213.375 269.214844 213.53125 269.539062 213.707031 269.855469 C 213.882812 270.167969 214.078125 270.472656 214.289062 270.765625 C 214.5 271.058594 214.730469 271.335938 214.972656 271.601562 C 215.21875 271.867188 215.476562 272.117188 215.75 272.351562 C 216.027344 272.585938 216.3125 272.800781 216.613281 273.003906 C 216.914062 273.203125 217.222656 273.386719 217.542969 273.550781 C 217.867188 273.714844 218.195312 273.859375 218.535156 273.984375 C 218.871094 274.109375 219.21875 274.214844 219.570312 274.296875 C 219.917969 274.382812 220.273438 274.445312 220.632812 274.488281 C 220.992188 274.53125 221.351562 274.550781 221.710938 274.550781 C 222.070312 274.550781 222.429688 274.53125 222.789062 274.488281 C 223.148438 274.445312 223.503906 274.382812 223.851562 274.296875 C 224.203125 274.214844 224.546875 274.109375 224.886719 273.984375 C 225.226562 273.859375 225.554688 273.714844 225.875 273.550781 C 226.199219 273.386719 226.507812 273.203125 226.808594 273.003906 C 227.109375 272.800781 227.394531 272.585938 227.671875 272.351562 C 227.945312 272.117188 228.203125 271.867188 228.449219 271.601562 C 228.691406 271.335938 228.921875 271.058594 229.132812 270.765625 C 229.34375 270.472656 229.539062 270.167969 229.714844 269.855469 C 229.890625 269.539062 230.046875 269.214844 230.183594 268.882812 C 230.324219 268.546875 230.441406 268.207031 230.539062 267.859375 C 230.636719 267.511719 230.710938 267.160156 230.769531 266.804688 C 230.824219 266.449219 230.859375 266.089844 230.871094 265.730469 C 230.886719 265.367188 230.878906 265.007812 230.847656 264.648438 C 230.820312 264.289062 230.769531 263.933594 230.699219 263.578125 C 230.628906 263.222656 230.535156 262.875 230.425781 262.535156 C 230.3125 262.191406 230.179688 261.855469 230.027344 261.527344 C 229.878906 261.199219 229.707031 260.882812 229.515625 260.574219 C 229.328125 260.269531 229.121094 259.972656 228.898438 259.691406 C 228.671875 259.40625 228.433594 259.140625 228.179688 258.882812 C 227.921875 258.628906 227.652344 258.390625 227.367188 258.167969 C 227.085938 257.945312 226.789062 257.742188 226.480469 257.554688 C 226.171875 257.367188 225.855469 257.195312 225.527344 257.046875 C 225.199219 256.894531 224.863281 256.765625 224.519531 256.65625 L 224.519531 239.808594 L 230.527344 239.808594 C 231.417969 239.808594 232.296875 239.71875 233.167969 239.546875 C 234.039062 239.371094 234.882812 239.113281 235.703125 238.773438 C 236.527344 238.433594 237.304688 238.015625 238.042969 237.523438 C 238.78125 237.027344 239.464844 236.46875 240.09375 235.839844 C 240.722656 235.210938 241.28125 234.527344 241.777344 233.789062 C 242.269531 233.050781 242.6875 232.269531 243.027344 231.449219 C 243.367188 230.628906 243.625 229.785156 243.800781 228.914062 C 243.972656 228.042969 244.0625 227.160156 244.0625 226.273438 L 244.0625 224 L 258.707031 224 C 258.816406 224.34375 258.945312 224.675781 259.097656 225.003906 C 259.246094 225.332031 259.414062 225.648438 259.601562 225.957031 C 259.789062 226.265625 259.996094 226.558594 260.21875 226.84375 C 260.441406 227.125 260.679688 227.394531 260.933594 227.652344 C 261.1875 227.90625 261.457031 228.144531 261.738281 228.367188 C 262.019531 228.59375 262.316406 228.796875 262.621094 228.988281 C 262.929688 229.175781 263.246094 229.347656 263.570312 229.496094 C 263.898438 229.648438 264.234375 229.78125 264.574219 229.890625 C 264.917969 230.003906 265.265625 230.09375 265.621094 230.167969 C 265.972656 230.238281 266.328125 230.285156 266.6875 230.316406 C 267.046875 230.34375 267.40625 230.351562 267.765625 230.339844 C 268.125 230.324219 268.484375 230.289062 268.839844 230.234375 C 269.195312 230.179688 269.546875 230.101562 269.894531 230.003906 C 270.242188 229.90625 270.582031 229.789062 270.914062 229.652344 C 271.246094 229.515625 271.570312 229.359375 271.882812 229.183594 C 272.199219 229.007812 272.5 228.8125 272.792969 228.601562 C 273.085938 228.390625 273.363281 228.160156 273.628906 227.917969 C 273.890625 227.671875 274.140625 227.414062 274.375 227.140625 C 274.609375 226.867188 274.828125 226.578125 275.027344 226.28125 C 275.226562 225.980469 275.410156 225.671875 275.574219 225.351562 C 275.738281 225.027344 275.882812 224.699219 276.003906 224.363281 C 276.128906 224.023438 276.234375 223.679688 276.320312 223.328125 C 276.402344 222.980469 276.464844 222.625 276.507812 222.269531 C 276.550781 221.910156 276.574219 221.550781 276.574219 221.191406 C 276.574219 220.832031 276.550781 220.472656 276.507812 220.113281 C 276.464844 219.757812 276.402344 219.402344 276.320312 219.050781 C 276.234375 218.703125 276.128906 218.359375 276.003906 218.019531 C 275.878906 217.683594 275.738281 217.351562 275.574219 217.03125 C 275.410156 216.710938 275.226562 216.402344 275.027344 216.101562 C 274.828125 215.800781 274.609375 215.515625 274.375 215.242188 C 274.140625 214.96875 273.890625 214.710938 273.628906 214.464844 C 273.363281 214.21875 273.085938 213.992188 272.792969 213.78125 C 272.5 213.570312 272.199219 213.375 271.882812 213.199219 C 271.570312 213.023438 271.246094 212.867188 270.914062 212.730469 C 270.582031 212.59375 270.242188 212.476562 269.894531 212.378906 C 269.546875 212.28125 269.195312 212.203125 268.839844 212.148438 C 268.484375 212.09375 268.125 212.058594 267.765625 212.042969 C 267.40625 212.03125 267.046875 212.039062 266.6875 212.066406 C 266.328125 212.09375 265.972656 212.144531 265.617188 212.214844 C 265.265625 212.285156 264.917969 212.378906 264.574219 212.488281 C 264.234375 212.601562 263.898438 212.734375 263.570312 212.882812 C 263.246094 213.035156 262.929688 213.207031 262.621094 213.394531 C 262.316406 213.582031 262.019531 213.789062 261.738281 214.011719 C 261.457031 214.238281 261.1875 214.476562 260.933594 214.730469 C 260.679688 214.984375 260.441406 215.253906 260.21875 215.539062 C 259.996094 215.820312 259.789062 216.117188 259.601562 216.425781 C 259.414062 216.734375 259.246094 217.050781 259.097656 217.378906 C 258.945312 217.703125 258.816406 218.039062 258.707031 218.382812 L 244.035156 218.382812 L 244.035156 202.167969 L 258.675781 202.167969 C 258.789062 202.511719 258.917969 202.847656 259.070312 203.175781 C 259.21875 203.503906 259.386719 203.820312 259.574219 204.128906 C 259.761719 204.4375 259.96875 204.734375 260.191406 205.015625 C 260.414062 205.300781 260.652344 205.570312 260.90625 205.828125 C 261.160156 206.082031 261.429688 206.320312 261.710938 206.546875 C 261.996094 206.769531 262.289062 206.976562 262.597656 207.164062 C 262.90625 207.355469 263.222656 207.527344 263.550781 207.675781 C 263.878906 207.828125 264.210938 207.960938 264.554688 208.074219 C 264.898438 208.183594 265.246094 208.277344 265.601562 208.347656 C 265.953125 208.417969 266.3125 208.46875 266.671875 208.496094 C 267.03125 208.527344 267.390625 208.535156 267.75 208.519531 C 268.109375 208.507812 268.46875 208.472656 268.828125 208.417969 C 269.183594 208.359375 269.535156 208.285156 269.882812 208.1875 C 270.230469 208.089844 270.570312 207.972656 270.902344 207.832031 C 271.238281 207.695312 271.5625 207.539062 271.875 207.363281 C 272.191406 207.1875 272.496094 206.992188 272.785156 206.78125 C 273.078125 206.570312 273.359375 206.339844 273.621094 206.097656 C 273.886719 205.851562 274.136719 205.59375 274.371094 205.316406 C 274.605469 205.042969 274.824219 204.757812 275.023438 204.457031 C 275.226562 204.15625 275.40625 203.847656 275.570312 203.523438 C 275.734375 203.203125 275.878906 202.875 276.003906 202.535156 C 276.128906 202.195312 276.234375 201.851562 276.320312 201.5 C 276.402344 201.152344 276.46875 200.796875 276.507812 200.4375 C 276.550781 200.078125 276.574219 199.71875 276.574219 199.359375 C 276.574219 199 276.550781 198.640625 276.507812 198.28125 C 276.46875 197.921875 276.402344 197.566406 276.320312 197.214844 C 276.234375 196.867188 276.128906 196.519531 276.003906 196.183594 C 275.878906 195.84375 275.734375 195.515625 275.570312 195.191406 C 275.40625 194.871094 275.226562 194.5625 275.023438 194.261719 C 274.824219 193.960938 274.605469 193.675781 274.371094 193.398438 C 274.136719 193.125 273.886719 192.867188 273.621094 192.621094 C 273.359375 192.375 273.078125 192.148438 272.785156 191.9375 C 272.496094 191.726562 272.191406 191.53125 271.875 191.355469 C 271.5625 191.179688 271.238281 191.023438 270.902344 190.882812 C 270.570312 190.746094 270.230469 190.628906 269.882812 190.53125 C 269.535156 190.433594 269.183594 190.359375 268.828125 190.300781 C 268.46875 190.246094 268.109375 190.210938 267.75 190.199219 C 267.390625 190.183594 267.03125 190.191406 266.671875 190.21875 C 266.3125 190.25 265.953125 190.300781 265.601562 190.371094 C 265.246094 190.441406 264.898438 190.53125 264.554688 190.644531 C 264.210938 190.757812 263.878906 190.890625 263.550781 191.042969 C 263.222656 191.191406 262.90625 191.363281 262.597656 191.550781 C 262.289062 191.742188 261.996094 191.949219 261.710938 192.171875 C 261.429688 192.394531 261.160156 192.636719 260.90625 192.890625 C 260.652344 193.148438 260.414062 193.417969 260.191406 193.703125 C 259.96875 193.984375 259.761719 194.28125 259.574219 194.589844 C 259.386719 194.898438 259.21875 195.214844 259.070312 195.542969 C 258.917969 195.871094 258.789062 196.207031 258.675781 196.550781 L 244.035156 196.550781 L 244.035156 178.300781 L 258.675781 178.300781 C 258.789062 178.640625 258.917969 178.976562 259.070312 179.304688 C 259.21875 179.632812 259.386719 179.949219 259.574219 180.257812 C 259.761719 180.566406 259.96875 180.859375 260.191406 181.144531 C 260.410156 181.425781 260.652344 181.695312 260.90625 181.953125 C 261.160156 182.207031 261.425781 182.445312 261.710938 182.667969 C 261.992188 182.894531 262.285156 183.097656 262.59375 183.289062 C 262.898438 183.476562 263.21875 183.648438 263.542969 183.796875 C 263.871094 183.949219 264.207031 184.082031 264.546875 184.191406 C 264.890625 184.304688 265.238281 184.394531 265.589844 184.464844 C 265.945312 184.539062 266.300781 184.585938 266.660156 184.617188 C 267.019531 184.644531 267.378906 184.652344 267.738281 184.640625 C 268.097656 184.625 268.457031 184.589844 268.8125 184.535156 C 269.167969 184.476562 269.519531 184.402344 269.867188 184.304688 C 270.210938 184.207031 270.550781 184.089844 270.886719 183.953125 C 271.21875 183.8125 271.542969 183.65625 271.855469 183.480469 C 272.171875 183.304688 272.472656 183.113281 272.765625 182.902344 C 273.054688 182.691406 273.335938 182.460938 273.597656 182.21875 C 273.863281 181.972656 274.113281 181.714844 274.347656 181.441406 C 274.582031 181.167969 274.796875 180.878906 275 180.582031 C 275.199219 180.28125 275.382812 179.972656 275.546875 179.652344 C 275.707031 179.328125 275.851562 179 275.976562 178.664062 C 276.101562 178.324219 276.207031 177.980469 276.289062 177.628906 C 276.375 177.28125 276.4375 176.925781 276.480469 176.566406 C 276.523438 176.210938 276.542969 175.851562 276.542969 175.492188 C 276.542969 175.132812 276.523438 174.773438 276.480469 174.414062 C 276.4375 174.058594 276.375 173.703125 276.289062 173.351562 C 276.207031 173.003906 276.101562 172.660156 275.976562 172.320312 C 275.851562 171.984375 275.707031 171.652344 275.546875 171.332031 C 275.382812 171.011719 275.199219 170.703125 275 170.402344 C 274.796875 170.101562 274.582031 169.816406 274.347656 169.542969 C 274.113281 169.269531 273.863281 169.007812 273.597656 168.765625 C 273.335938 168.519531 273.054688 168.292969 272.765625 168.082031 C 272.472656 167.871094 272.171875 167.675781 271.855469 167.5 C 271.542969 167.324219 271.21875 167.167969 270.886719 167.03125 C 270.550781 166.894531 270.210938 166.777344 269.867188 166.679688 C 269.519531 166.582031 269.167969 166.503906 268.8125 166.449219 C 268.457031 166.390625 268.097656 166.359375 267.738281 166.34375 C 267.378906 166.332031 267.019531 166.335938 266.660156 166.367188 C 266.300781 166.394531 265.945312 166.445312 265.589844 166.515625 C 265.238281 166.585938 264.890625 166.679688 264.546875 166.789062 C 264.207031 166.902344 263.871094 167.035156 263.542969 167.183594 C 263.21875 167.335938 262.898438 167.507812 262.59375 167.695312 C 262.285156 167.882812 261.992188 168.089844 261.710938 168.3125 C 261.425781 168.535156 261.160156 168.777344 260.90625 169.03125 C 260.652344 169.285156 260.410156 169.554688 260.191406 169.839844 C 259.96875 170.121094 259.761719 170.417969 259.574219 170.726562 C 259.386719 171.03125 259.21875 171.351562 259.070312 171.679688 C 258.917969 172.003906 258.789062 172.339844 258.675781 172.683594 L 244.035156 172.683594 Z M 267.382812 150.21875 C 267.851562 150.21875 268.304688 150.308594 268.734375 150.488281 C 269.167969 150.667969 269.550781 150.925781 269.882812 151.257812 C 270.214844 151.585938 270.472656 151.96875 270.652344 152.402344 C 270.832031 152.835938 270.921875 153.289062 270.921875 153.757812 C 270.921875 154.226562 270.832031 154.679688 270.652344 155.113281 C 270.472656 155.546875 270.214844 155.925781 269.882812 156.257812 C 269.550781 156.589844 269.167969 156.847656 268.734375 157.027344 C 268.304688 157.207031 267.851562 157.296875 267.382812 157.296875 C 266.914062 157.296875 266.460938 157.207031 266.027344 157.027344 C 265.59375 156.847656 265.210938 156.589844 264.878906 156.257812 C 264.546875 155.925781 264.292969 155.546875 264.113281 155.113281 C 263.933594 154.679688 263.84375 154.226562 263.84375 153.757812 C 263.84375 153.289062 263.933594 152.835938 264.113281 152.402344 C 264.292969 151.96875 264.550781 151.585938 264.878906 151.257812 C 265.210938 150.925781 265.59375 150.667969 266.027344 150.488281 C 266.460938 150.308594 266.914062 150.21875 267.382812 150.21875 Z M 220.515625 105.910156 C 220.988281 105.910156 221.4375 106 221.875 106.179688 C 222.308594 106.359375 222.691406 106.613281 223.023438 106.945312 C 223.355469 107.277344 223.613281 107.660156 223.792969 108.09375 C 223.976562 108.527344 224.066406 108.976562 224.070312 109.449219 C 224.070312 109.917969 223.984375 110.371094 223.804688 110.804688 C 223.628906 111.238281 223.375 111.625 223.042969 111.957031 C 222.714844 112.292969 222.332031 112.550781 221.898438 112.734375 C 221.464844 112.917969 221.015625 113.011719 220.546875 113.015625 C 220.074219 113.019531 219.621094 112.929688 219.1875 112.753906 C 218.75 112.578125 218.367188 112.328125 218.03125 112 C 217.695312 111.667969 217.433594 111.289062 217.25 110.855469 C 217.066406 110.425781 216.972656 109.972656 216.964844 109.503906 C 216.960938 109.03125 217.046875 108.570312 217.222656 108.132812 C 217.402344 107.691406 217.65625 107.304688 217.992188 106.964844 C 218.324219 106.628906 218.710938 106.367188 219.148438 106.183594 C 219.585938 106 220.042969 105.910156 220.515625 105.910156 Z M 198.671875 105.910156 C 199.140625 105.90625 199.59375 105.996094 200.03125 106.175781 C 200.464844 106.351562 200.847656 106.605469 201.183594 106.9375 C 201.519531 107.269531 201.777344 107.648438 201.957031 108.082031 C 202.140625 108.515625 202.234375 108.96875 202.238281 109.4375 C 202.242188 109.910156 202.152344 110.363281 201.976562 110.796875 C 201.800781 111.234375 201.546875 111.617188 201.214844 111.953125 C 200.886719 112.289062 200.503906 112.546875 200.074219 112.730469 C 199.640625 112.914062 199.1875 113.007812 198.71875 113.015625 C 198.246094 113.019531 197.792969 112.933594 197.359375 112.757812 C 196.921875 112.582031 196.535156 112.328125 196.199219 112 C 195.863281 111.671875 195.605469 111.289062 195.417969 110.859375 C 195.234375 110.425781 195.140625 109.972656 195.132812 109.503906 C 195.128906 109.03125 195.214844 108.574219 195.390625 108.136719 C 195.566406 107.695312 195.820312 107.308594 196.152344 106.96875 C 196.484375 106.632812 196.871094 106.371094 197.304688 106.1875 C 197.742188 106.003906 198.199219 105.910156 198.671875 105.910156 Z M 174.804688 105.910156 C 175.273438 105.910156 175.726562 106 176.160156 106.179688 C 176.59375 106.359375 176.976562 106.613281 177.308594 106.945312 C 177.644531 107.277344 177.898438 107.660156 178.082031 108.09375 C 178.261719 108.527344 178.355469 108.976562 178.355469 109.449219 C 178.355469 109.917969 178.269531 110.371094 178.089844 110.804688 C 177.914062 111.238281 177.660156 111.625 177.328125 111.957031 C 177 112.292969 176.617188 112.550781 176.183594 112.734375 C 175.753906 112.917969 175.300781 113.011719 174.832031 113.015625 C 174.363281 113.019531 173.910156 112.929688 173.472656 112.753906 C 173.039062 112.578125 172.652344 112.328125 172.316406 112 C 171.980469 111.667969 171.722656 111.289062 171.535156 110.855469 C 171.351562 110.425781 171.257812 109.972656 171.25 109.503906 C 171.246094 109.03125 171.332031 108.574219 171.507812 108.136719 C 171.683594 107.695312 171.941406 107.308594 172.273438 106.96875 C 172.605469 106.632812 172.988281 106.371094 173.425781 106.1875 C 173.859375 106.003906 174.316406 105.910156 174.789062 105.910156 Z M 152.957031 105.910156 C 153.425781 105.910156 153.878906 106 154.3125 106.179688 C 154.746094 106.359375 155.132812 106.613281 155.464844 106.945312 C 155.796875 107.277344 156.054688 107.660156 156.234375 108.09375 C 156.417969 108.527344 156.507812 108.976562 156.507812 109.449219 C 156.511719 109.917969 156.421875 110.371094 156.246094 110.804688 C 156.066406 111.238281 155.8125 111.625 155.484375 111.957031 C 155.152344 112.292969 154.773438 112.550781 154.339844 112.734375 C 153.90625 112.917969 153.457031 113.011719 152.984375 113.015625 C 152.515625 113.019531 152.0625 112.929688 151.628906 112.753906 C 151.191406 112.578125 150.804688 112.328125 150.46875 112 C 150.136719 111.667969 149.875 111.289062 149.691406 110.855469 C 149.507812 110.425781 149.410156 109.972656 149.40625 109.503906 C 149.402344 109.03125 149.488281 108.574219 149.667969 108.136719 C 149.84375 107.699219 150.097656 107.3125 150.429688 106.972656 C 150.761719 106.636719 151.144531 106.375 151.582031 106.191406 C 152.015625 106.007812 152.472656 105.914062 152.945312 105.910156 Z M 107.539062 157.238281 C 107.070312 157.238281 106.617188 157.148438 106.183594 156.96875 C 105.75 156.789062 105.367188 156.535156 105.035156 156.203125 C 104.707031 155.871094 104.449219 155.488281 104.269531 155.054688 C 104.089844 154.621094 104 154.171875 104 153.703125 C 104 153.230469 104.089844 152.78125 104.269531 152.347656 C 104.449219 151.914062 104.707031 151.53125 105.035156 151.199219 C 105.367188 150.867188 105.75 150.613281 106.183594 150.433594 C 106.617188 150.253906 107.070312 150.164062 107.539062 150.164062 C 108.007812 150.164062 108.460938 150.253906 108.894531 150.433594 C 109.328125 150.613281 109.707031 150.867188 110.039062 151.199219 C 110.371094 151.53125 110.628906 151.914062 110.808594 152.347656 C 110.988281 152.78125 111.078125 153.230469 111.078125 153.703125 C 111.074219 154.171875 110.984375 154.621094 110.804688 155.054688 C 110.625 155.484375 110.367188 155.867188 110.035156 156.199219 C 109.707031 156.53125 109.324219 156.785156 108.890625 156.964844 C 108.457031 157.148438 108.007812 157.238281 107.539062 157.238281 Z M 107.539062 179.085938 C 107.070312 179.085938 106.617188 179 106.179688 178.820312 C 105.746094 178.644531 105.359375 178.390625 105.027344 178.058594 C 104.691406 177.726562 104.433594 177.34375 104.25 176.910156 C 104.070312 176.480469 103.976562 176.027344 103.972656 175.558594 C 103.96875 175.085938 104.058594 174.632812 104.234375 174.199219 C 104.410156 173.761719 104.664062 173.375 104.992188 173.042969 C 105.324219 172.707031 105.703125 172.445312 106.136719 172.261719 C 106.570312 172.078125 107.023438 171.984375 107.492188 171.980469 C 107.960938 171.976562 108.414062 172.0625 108.851562 172.238281 C 109.289062 172.414062 109.675781 172.667969 110.011719 172.996094 C 110.347656 173.324219 110.605469 173.707031 110.792969 174.136719 C 110.976562 174.570312 111.070312 175.019531 111.078125 175.492188 C 111.082031 175.964844 110.992188 176.417969 110.816406 176.855469 C 110.636719 177.292969 110.382812 177.679688 110.050781 178.015625 C 109.71875 178.351562 109.335938 178.613281 108.898438 178.792969 C 108.464844 178.976562 108.011719 179.070312 107.539062 179.070312 Z M 107.539062 202.953125 C 107.070312 202.957031 106.617188 202.867188 106.179688 202.6875 C 105.746094 202.511719 105.359375 202.257812 105.027344 201.925781 C 104.691406 201.59375 104.433594 201.214844 104.25 200.78125 C 104.070312 200.347656 103.976562 199.894531 103.972656 199.425781 C 103.96875 198.953125 104.058594 198.5 104.234375 198.066406 C 104.410156 197.628906 104.664062 197.246094 104.992188 196.910156 C 105.324219 196.574219 105.703125 196.316406 106.136719 196.132812 C 106.570312 195.949219 107.023438 195.855469 107.492188 195.847656 C 107.960938 195.84375 108.414062 195.929688 108.851562 196.105469 C 109.289062 196.28125 109.675781 196.535156 110.011719 196.863281 C 110.347656 197.191406 110.605469 197.574219 110.792969 198.003906 C 110.976562 198.4375 111.070312 198.890625 111.078125 199.359375 C 111.082031 199.832031 110.996094 200.289062 110.820312 200.726562 C 110.644531 201.167969 110.386719 201.554688 110.054688 201.894531 C 109.722656 202.230469 109.339844 202.492188 108.902344 202.675781 C 108.46875 202.859375 108.011719 202.953125 107.539062 202.953125 Z M 107.539062 224.785156 C 107.070312 224.785156 106.617188 224.695312 106.183594 224.515625 C 105.75 224.335938 105.367188 224.082031 105.035156 223.75 C 104.707031 223.417969 104.449219 223.035156 104.269531 222.601562 C 104.089844 222.167969 104 221.714844 104 221.246094 C 104 220.777344 104.089844 220.328125 104.269531 219.894531 C 104.449219 219.460938 104.707031 219.078125 105.035156 218.746094 C 105.367188 218.414062 105.75 218.15625 106.183594 217.976562 C 106.617188 217.800781 107.070312 217.710938 107.539062 217.710938 C 108.007812 217.710938 108.460938 217.800781 108.894531 217.976562 C 109.328125 218.15625 109.707031 218.414062 110.039062 218.746094 C 110.371094 219.078125 110.628906 219.460938 110.808594 219.894531 C 110.988281 220.328125 111.078125 220.777344 111.078125 221.246094 C 111.074219 221.714844 110.984375 222.167969 110.804688 222.597656 C 110.625 223.03125 110.367188 223.414062 110.035156 223.746094 C 109.707031 224.078125 109.324219 224.332031 108.890625 224.511719 C 108.457031 224.691406 108.007812 224.785156 107.539062 224.785156 Z M 154.164062 269.023438 C 153.695312 269.027344 153.238281 268.9375 152.804688 268.757812 C 152.367188 268.582031 151.980469 268.324219 151.648438 267.992188 C 151.3125 267.660156 151.054688 267.277344 150.875 266.839844 C 150.691406 266.40625 150.601562 265.953125 150.597656 265.480469 C 150.597656 265.011719 150.6875 264.558594 150.867188 264.121094 C 151.046875 263.683594 151.300781 263.300781 151.632812 262.964844 C 151.96875 262.632812 152.351562 262.375 152.785156 262.191406 C 153.222656 262.011719 153.675781 261.921875 154.144531 261.921875 C 154.617188 261.921875 155.070312 262.007812 155.507812 262.191406 C 155.941406 262.371094 156.328125 262.625 156.660156 262.960938 C 156.996094 263.292969 157.25 263.675781 157.433594 264.113281 C 157.613281 264.546875 157.703125 265 157.703125 265.472656 C 157.703125 265.941406 157.613281 266.394531 157.433594 266.828125 C 157.253906 267.261719 157 267.648438 156.667969 267.980469 C 156.335938 268.3125 155.953125 268.570312 155.519531 268.75 C 155.085938 268.929688 154.636719 269.023438 154.164062 269.023438 Z M 176.011719 269.023438 C 175.539062 269.027344 175.085938 268.9375 174.648438 268.757812 C 174.214844 268.582031 173.828125 268.324219 173.492188 267.992188 C 173.160156 267.660156 172.902344 267.277344 172.71875 266.839844 C 172.539062 266.40625 172.445312 265.953125 172.445312 265.480469 C 172.445312 265.011719 172.53125 264.558594 172.710938 264.121094 C 172.890625 263.683594 173.148438 263.300781 173.480469 262.964844 C 173.8125 262.632812 174.195312 262.375 174.632812 262.191406 C 175.066406 262.011719 175.519531 261.921875 175.992188 261.921875 C 176.464844 261.921875 176.917969 262.007812 177.351562 262.191406 C 177.789062 262.371094 178.171875 262.625 178.507812 262.960938 C 178.839844 263.292969 179.097656 263.675781 179.277344 264.113281 C 179.457031 264.546875 179.550781 265 179.550781 265.472656 C 179.550781 265.941406 179.460938 266.394531 179.28125 266.828125 C 179.101562 267.261719 178.84375 267.648438 178.515625 267.980469 C 178.183594 268.3125 177.800781 268.570312 177.367188 268.75 C 176.933594 268.929688 176.480469 269.023438 176.011719 269.023438 Z M 199.878906 269.023438 C 199.40625 269.027344 198.953125 268.9375 198.515625 268.757812 C 198.082031 268.582031 197.695312 268.324219 197.363281 267.992188 C 197.027344 267.660156 196.769531 267.277344 196.585938 266.839844 C 196.40625 266.40625 196.3125 265.953125 196.3125 265.480469 C 196.3125 265.011719 196.402344 264.558594 196.578125 264.121094 C 196.757812 263.683594 197.015625 263.300781 197.347656 262.964844 C 197.679688 262.632812 198.066406 262.375 198.5 262.191406 C 198.933594 262.011719 199.386719 261.921875 199.859375 261.921875 C 200.332031 261.921875 200.785156 262.007812 201.222656 262.191406 C 201.65625 262.371094 202.042969 262.625 202.375 262.960938 C 202.707031 263.292969 202.964844 263.675781 203.144531 264.113281 C 203.328125 264.546875 203.417969 265 203.417969 265.472656 C 203.417969 265.941406 203.328125 266.390625 203.148438 266.824219 C 202.972656 267.257812 202.714844 267.640625 202.386719 267.972656 C 202.054688 268.308594 201.675781 268.5625 201.242188 268.746094 C 200.8125 268.929688 200.363281 269.019531 199.894531 269.023438 Z M 221.710938 269.023438 C 221.238281 269.023438 220.785156 268.933594 220.351562 268.753906 C 219.917969 268.574219 219.53125 268.316406 219.199219 267.984375 C 218.867188 267.652344 218.609375 267.265625 218.429688 266.832031 C 218.25 266.398438 218.160156 265.945312 218.160156 265.472656 C 218.160156 265 218.25 264.546875 218.429688 264.113281 C 218.609375 263.679688 218.867188 263.292969 219.199219 262.960938 C 219.53125 262.628906 219.917969 262.371094 220.351562 262.191406 C 220.785156 262.011719 221.238281 261.921875 221.710938 261.921875 C 222.183594 261.921875 222.636719 262.011719 223.070312 262.191406 C 223.503906 262.371094 223.890625 262.628906 224.222656 262.960938 C 224.554688 263.292969 224.8125 263.679688 224.992188 264.113281 C 225.171875 264.546875 225.261719 265 225.261719 265.472656 C 225.261719 265.941406 225.171875 266.394531 224.992188 266.828125 C 224.8125 267.261719 224.558594 267.648438 224.226562 267.980469 C 223.894531 268.3125 223.511719 268.570312 223.078125 268.75 C 222.644531 268.929688 222.195312 269.023438 221.726562 269.023438 Z M 267.367188 217.710938 C 267.835938 217.710938 268.289062 217.800781 268.722656 217.976562 C 269.15625 218.15625 269.539062 218.414062 269.871094 218.746094 C 270.203125 219.078125 270.457031 219.460938 270.636719 219.894531 C 270.816406 220.328125 270.90625 220.777344 270.90625 221.246094 C 270.90625 221.714844 270.816406 222.167969 270.636719 222.601562 C 270.457031 223.035156 270.203125 223.417969 269.871094 223.75 C 269.539062 224.082031 269.15625 224.335938 268.722656 224.515625 C 268.289062 224.695312 267.835938 224.785156 267.367188 224.785156 C 266.898438 224.785156 266.449219 224.695312 266.015625 224.515625 C 265.582031 224.335938 265.199219 224.082031 264.867188 223.75 C 264.535156 223.417969 264.277344 223.035156 264.097656 222.601562 C 263.921875 222.167969 263.832031 221.714844 263.832031 221.246094 C 263.832031 220.777344 263.921875 220.324219 264.101562 219.890625 C 264.28125 219.457031 264.539062 219.074219 264.871094 218.742188 C 265.203125 218.410156 265.589844 218.152344 266.023438 217.972656 C 266.460938 217.796875 266.910156 217.707031 267.382812 217.710938 Z M 267.367188 195.863281 C 267.839844 195.859375 268.292969 195.949219 268.730469 196.128906 C 269.164062 196.308594 269.550781 196.5625 269.886719 196.894531 C 270.21875 197.226562 270.476562 197.609375 270.660156 198.046875 C 270.839844 198.480469 270.933594 198.933594 270.933594 199.40625 C 270.9375 199.878906 270.847656 200.332031 270.667969 200.765625 C 270.488281 201.203125 270.230469 201.585938 269.898438 201.921875 C 269.566406 202.257812 269.183594 202.511719 268.746094 202.695312 C 268.3125 202.875 267.859375 202.964844 267.386719 202.96875 C 266.914062 202.96875 266.460938 202.878906 266.027344 202.699219 C 265.589844 202.519531 265.207031 202.261719 264.871094 201.929688 C 264.539062 201.59375 264.28125 201.210938 264.101562 200.777344 C 263.921875 200.339844 263.832031 199.886719 263.832031 199.414062 C 263.828125 198.945312 263.917969 198.488281 264.097656 198.054688 C 264.277344 197.617188 264.53125 197.234375 264.867188 196.898438 C 265.199219 196.566406 265.585938 196.308594 266.019531 196.128906 C 266.457031 195.949219 266.910156 195.859375 267.382812 195.863281 Z M 267.367188 171.996094 C 267.839844 171.992188 268.296875 172.078125 268.734375 172.257812 C 269.175781 172.4375 269.5625 172.691406 269.898438 173.027344 C 270.234375 173.359375 270.492188 173.746094 270.675781 174.183594 C 270.855469 174.617188 270.949219 175.074219 270.949219 175.546875 C 270.949219 176.019531 270.855469 176.476562 270.675781 176.914062 C 270.492188 177.351562 270.234375 177.734375 269.898438 178.070312 C 269.5625 178.402344 269.175781 178.660156 268.734375 178.835938 C 268.296875 179.015625 267.839844 179.101562 267.367188 179.097656 C 266.894531 179.09375 266.441406 179 266.003906 178.816406 C 265.570312 178.628906 265.183594 178.367188 264.855469 178.027344 C 264.523438 177.691406 264.269531 177.300781 264.097656 176.859375 C 263.921875 176.421875 263.835938 175.964844 263.84375 175.492188 C 263.847656 175.023438 263.941406 174.574219 264.121094 174.144531 C 264.304688 173.714844 264.558594 173.335938 264.890625 173.007812 C 265.222656 172.679688 265.601562 172.425781 266.035156 172.246094 C 266.464844 172.070312 266.914062 171.980469 267.382812 171.980469 Z M 238.402344 226.34375 C 238.402344 226.863281 238.351562 227.378906 238.25 227.886719 C 238.148438 228.398438 237.996094 228.890625 237.796875 229.371094 C 237.597656 229.851562 237.355469 230.308594 237.066406 230.738281 C 236.777344 231.171875 236.449219 231.570312 236.082031 231.9375 C 235.714844 232.304688 235.3125 232.632812 234.882812 232.921875 C 234.449219 233.210938 233.992188 233.457031 233.515625 233.65625 C 233.035156 233.855469 232.539062 234.003906 232.03125 234.109375 C 231.519531 234.210938 231.003906 234.261719 230.484375 234.261719 L 145.390625 234.261719 C 144.871094 234.261719 144.355469 234.210938 143.847656 234.109375 C 143.335938 234.003906 142.84375 233.855469 142.363281 233.65625 C 141.882812 233.457031 141.425781 233.210938 140.996094 232.921875 C 140.5625 232.632812 140.164062 232.304688 139.796875 231.9375 C 139.425781 231.570312 139.097656 231.171875 138.808594 230.738281 C 138.523438 230.308594 138.277344 229.851562 138.078125 229.371094 C 137.878906 228.890625 137.726562 228.398438 137.625 227.886719 C 137.523438 227.378906 137.472656 226.863281 137.472656 226.34375 L 137.472656 148.605469 C 137.472656 148.085938 137.523438 147.570312 137.625 147.0625 C 137.726562 146.550781 137.878906 146.058594 138.078125 145.578125 C 138.277344 145.097656 138.523438 144.640625 138.8125 144.210938 C 139.097656 143.777344 139.425781 143.378906 139.796875 143.011719 C 140.164062 142.640625 140.5625 142.3125 140.996094 142.027344 C 141.425781 141.738281 141.882812 141.492188 142.363281 141.292969 C 142.84375 141.09375 143.335938 140.941406 143.847656 140.839844 C 144.355469 140.738281 144.871094 140.6875 145.390625 140.6875 L 230.527344 140.6875 C 231.046875 140.6875 231.5625 140.738281 232.070312 140.839844 C 232.582031 140.941406 233.074219 141.09375 233.554688 141.292969 C 234.035156 141.492188 234.492188 141.738281 234.921875 142.027344 C 235.355469 142.3125 235.753906 142.640625 236.121094 143.011719 C 236.492188 143.378906 236.820312 143.777344 237.109375 144.210938 C 237.394531 144.640625 237.640625 145.097656 237.839844 145.578125 C 238.039062 146.058594 238.191406 146.550781 238.292969 147.0625 C 238.394531 147.570312 238.445312 148.085938 238.445312 148.605469 Z M 238.402344 226.34375 " fill-opacity="1" fill-rule="nonzero"/></g></svg>