<svg xmlns="http://www.w3.org/2000/svg" xmlns:xlink="http://www.w3.org/1999/xlink" width="885" zoomAndPan="magnify" viewBox="0 0 663.75 137.249994" height="183" preserveAspectRatio="xMidYMid meet" version="1.0"><defs><g/><clipPath id="ffc7fec36e"><path d="M 1.679688 0 L 661.820312 0 L 661.820312 136.503906 L 1.679688 136.503906 Z M 1.679688 0 " clip-rule="nonzero"/></clipPath><linearGradient x1="0" gradientTransform="matrix(0.745924, 0, 0, 0.745924, 1.679362, -0.000000994565)" y1="91.5" x2="884.999963" gradientUnits="userSpaceOnUse" y2="91.5" id="3a1cfbb6a1"><stop stop-opacity="1" stop-color="rgb(0%, 0%, 0%)" offset="0"/><stop stop-opacity="1" stop-color="rgb(0%, 0%, 0%)" offset="0.5"/><stop stop-opacity="1" stop-color="rgb(0.0854492%, 0.140381%, 0.0762939%)" offset="0.507812"/><stop stop-opacity="1" stop-color="rgb(0.256348%, 0.421143%, 0.228882%)" offset="0.515625"/><stop stop-opacity="1" stop-color="rgb(0.428772%, 0.701904%, 0.38147%)" offset="0.523438"/><stop stop-opacity="1" stop-color="rgb(0.59967%, 0.982666%, 0.535583%)" offset="0.53125"/><stop stop-opacity="1" stop-color="rgb(0.772095%, 1.264954%, 0.688171%)" offset="0.539062"/><stop stop-opacity="1" stop-color="rgb(0.944519%, 1.545715%, 0.840759%)" offset="0.546875"/><stop stop-opacity="1" stop-color="rgb(1.115417%, 1.826477%, 0.994873%)" offset="0.554688"/><stop stop-opacity="1" stop-color="rgb(1.287842%, 2.108765%, 1.147461%)" offset="0.5625"/><stop stop-opacity="1" stop-color="rgb(1.460266%, 2.389526%, 1.300049%)" offset="0.570312"/><stop stop-opacity="1" stop-color="rgb(1.631165%, 2.670288%, 1.454163%)" offset="0.578125"/><stop stop-opacity="1" stop-color="rgb(1.803589%, 2.952576%, 1.60675%)" offset="0.585938"/><stop stop-opacity="1" stop-color="rgb(1.976013%, 3.233337%, 1.759338%)" offset="0.59375"/><stop stop-opacity="1" stop-color="rgb(2.146912%, 3.514099%, 1.913452%)" offset="0.601562"/><stop stop-opacity="1" stop-color="rgb(2.319336%, 3.796387%, 2.06604%)" offset="0.609375"/><stop stop-opacity="1" stop-color="rgb(2.490234%, 4.077148%, 2.218628%)" offset="0.617188"/><stop stop-opacity="1" stop-color="rgb(2.662659%, 4.35791%, 2.372742%)" offset="0.625"/><stop stop-opacity="1" stop-color="rgb(2.835083%, 4.640198%, 2.52533%)" offset="0.632812"/><stop stop-opacity="1" stop-color="rgb(3.005981%, 4.920959%, 2.677917%)" offset="0.640625"/><stop stop-opacity="1" stop-color="rgb(3.178406%, 5.201721%, 2.832031%)" offset="0.648438"/><stop stop-opacity="1" stop-color="rgb(3.35083%, 5.484009%, 2.984619%)" offset="0.65625"/><stop stop-opacity="1" stop-color="rgb(3.521729%, 5.764771%, 3.138733%)" offset="0.664062"/><stop stop-opacity="1" stop-color="rgb(3.694153%, 6.045532%, 3.291321%)" offset="0.671875"/><stop stop-opacity="1" stop-color="rgb(3.866577%, 6.32782%, 3.443909%)" offset="0.679688"/><stop stop-opacity="1" stop-color="rgb(4.037476%, 6.608582%, 3.598022%)" offset="0.6875"/><stop stop-opacity="1" stop-color="rgb(4.2099%, 6.889343%, 3.75061%)" offset="0.695312"/><stop stop-opacity="1" stop-color="rgb(4.380798%, 7.170105%, 3.903198%)" offset="0.703125"/><stop stop-opacity="1" stop-color="rgb(4.553223%, 7.452393%, 4.057312%)" offset="0.710938"/><stop stop-opacity="1" stop-color="rgb(4.725647%, 7.733154%, 4.2099%)" offset="0.71875"/><stop stop-opacity="1" stop-color="rgb(4.896545%, 8.013916%, 4.362488%)" offset="0.726562"/><stop stop-opacity="1" stop-color="rgb(5.06897%, 8.296204%, 4.516602%)" offset="0.734375"/><stop stop-opacity="1" stop-color="rgb(5.241394%, 8.576965%, 4.669189%)" offset="0.742188"/><stop stop-opacity="1" stop-color="rgb(5.412292%, 8.857727%, 4.821777%)" offset="0.75"/><stop stop-opacity="1" stop-color="rgb(5.584717%, 9.140015%, 4.975891%)" offset="0.757812"/><stop stop-opacity="1" stop-color="rgb(5.757141%, 9.420776%, 5.128479%)" offset="0.765625"/><stop stop-opacity="1" stop-color="rgb(5.92804%, 9.701538%, 5.281067%)" offset="0.773438"/><stop stop-opacity="1" stop-color="rgb(6.100464%, 9.983826%, 5.435181%)" offset="0.78125"/><stop stop-opacity="1" stop-color="rgb(6.272888%, 10.264587%, 5.587769%)" offset="0.789062"/><stop stop-opacity="1" stop-color="rgb(6.443787%, 10.545349%, 5.741882%)" offset="0.796875"/><stop stop-opacity="1" stop-color="rgb(6.616211%, 10.827637%, 5.89447%)" offset="0.804688"/><stop stop-opacity="1" stop-color="rgb(6.787109%, 11.108398%, 6.047058%)" offset="0.8125"/><stop stop-opacity="1" stop-color="rgb(6.959534%, 11.38916%, 6.201172%)" offset="0.820312"/><stop stop-opacity="1" stop-color="rgb(7.131958%, 11.671448%, 6.35376%)" offset="0.828125"/><stop stop-opacity="1" stop-color="rgb(7.302856%, 11.952209%, 6.506348%)" offset="0.835938"/><stop stop-opacity="1" stop-color="rgb(7.475281%, 12.232971%, 6.660461%)" offset="0.84375"/><stop stop-opacity="1" stop-color="rgb(7.647705%, 12.515259%, 6.813049%)" offset="0.851562"/><stop stop-opacity="1" stop-color="rgb(7.818604%, 12.796021%, 6.965637%)" offset="0.859375"/><stop stop-opacity="1" stop-color="rgb(7.991028%, 13.076782%, 7.119751%)" offset="0.867188"/><stop stop-opacity="1" stop-color="rgb(8.163452%, 13.35907%, 7.272339%)" offset="0.875"/><stop stop-opacity="1" stop-color="rgb(8.334351%, 13.639832%, 7.424927%)" offset="0.882812"/><stop stop-opacity="1" stop-color="rgb(8.506775%, 13.920593%, 7.579041%)" offset="0.890625"/><stop stop-opacity="1" stop-color="rgb(8.677673%, 14.201355%, 7.731628%)" offset="0.898438"/><stop stop-opacity="1" stop-color="rgb(8.850098%, 14.483643%, 7.884216%)" offset="0.90625"/><stop stop-opacity="1" stop-color="rgb(9.022522%, 14.764404%, 8.03833%)" offset="0.914062"/><stop stop-opacity="1" stop-color="rgb(9.19342%, 15.045166%, 8.190918%)" offset="0.921875"/><stop stop-opacity="1" stop-color="rgb(9.365845%, 15.327454%, 8.345032%)" offset="0.929688"/><stop stop-opacity="1" stop-color="rgb(9.538269%, 15.608215%, 8.49762%)" offset="0.9375"/><stop stop-opacity="1" stop-color="rgb(9.709167%, 15.888977%, 8.650208%)" offset="0.945312"/><stop stop-opacity="1" stop-color="rgb(9.881592%, 16.171265%, 8.804321%)" offset="0.953125"/><stop stop-opacity="1" stop-color="rgb(10.054016%, 16.452026%, 8.956909%)" offset="0.960938"/><stop stop-opacity="1" stop-color="rgb(10.224915%, 16.732788%, 9.109497%)" offset="0.96875"/><stop stop-opacity="1" stop-color="rgb(10.397339%, 17.015076%, 9.263611%)" offset="0.976562"/><stop stop-opacity="1" stop-color="rgb(10.569763%, 17.295837%, 9.416199%)" offset="0.984375"/><stop stop-opacity="1" stop-color="rgb(10.740662%, 17.576599%, 9.568787%)" offset="0.992188"/><stop stop-opacity="1" stop-color="rgb(10.913086%, 17.858887%, 9.7229%)" offset="1"/></linearGradient></defs><g clip-path="url(#ffc7fec36e)"><path fill="#ffffff" d="M 1.679688 0 L 661.820312 0 L 661.820312 136.503906 L 1.679688 136.503906 Z M 1.679688 0 " fill-opacity="1" fill-rule="nonzero"/><path fill="url(#3a1cfbb6a1)" d="M 1.679688 0 L 1.679688 136.503906 L 661.820312 136.503906 L 661.820312 0 Z M 1.679688 0 " fill-rule="nonzero"/></g><g fill="#7ed957" fill-opacity="1"><g transform="translate(40.517449, 91.41173)"><g><path d="M 20.34375 0 L 20.34375 -38.359375 L 1.09375 -38.359375 L 1.09375 -48.46875 L 53.25 -48.46875 L 53.25 -38.359375 L 34 -38.359375 L 34 0 Z M 20.34375 0 "/></g></g></g><g fill="#7ed957" fill-opacity="1"><g transform="translate(83.521333, 91.41173)"><g><path d="M 26.34375 0.8125 C 21.65625 0.8125 17.46875 0.109375 13.78125 -1.296875 C 10.101562 -2.703125 7.203125 -4.769531 5.078125 -7.5 C 2.960938 -10.238281 1.90625 -13.585938 1.90625 -17.546875 C 1.90625 -21.546875 2.90625 -24.910156 4.90625 -27.640625 C 6.914062 -30.378906 9.726562 -32.441406 13.34375 -33.828125 C 16.957031 -35.210938 21.15625 -35.90625 25.9375 -35.90625 C 30.988281 -35.90625 35.265625 -35.117188 38.765625 -33.546875 C 42.273438 -31.984375 44.882812 -29.640625 46.59375 -26.515625 C 48.300781 -23.398438 48.925781 -19.546875 48.46875 -14.953125 L 15.21875 -14.953125 C 15.445312 -13.035156 16.457031 -11.414062 18.25 -10.09375 C 20.050781 -8.78125 22.75 -8.125 26.34375 -8.125 C 29.53125 -8.125 31.816406 -8.488281 33.203125 -9.21875 C 34.597656 -9.945312 35.613281 -10.898438 36.25 -12.078125 L 48.328125 -10.78125 C 47.328125 -7.007812 44.847656 -4.132812 40.890625 -2.15625 C 36.929688 -0.175781 32.082031 0.8125 26.34375 0.8125 Z M 26.078125 -27.640625 C 22.660156 -27.640625 20.097656 -27.0625 18.390625 -25.90625 C 16.691406 -24.75 15.660156 -23.347656 15.296875 -21.703125 L 36.390625 -21.703125 C 36.109375 -23.617188 35.113281 -25.085938 33.40625 -26.109375 C 31.707031 -27.128906 29.265625 -27.640625 26.078125 -27.640625 Z M 26.078125 -27.640625 "/></g></g><g transform="translate(134.170374, 91.41173)"><g><path d="M 25.59375 0.8125 C 22.550781 0.8125 19.617188 0.414062 16.796875 -0.375 C 13.972656 -1.164062 11.429688 -2.335938 9.171875 -3.890625 C 6.921875 -5.441406 5.132812 -7.351562 3.8125 -9.625 C 2.5 -11.894531 1.84375 -14.535156 1.84375 -17.546875 C 1.84375 -21.546875 2.910156 -24.910156 5.046875 -27.640625 C 7.191406 -30.378906 10.070312 -32.441406 13.6875 -33.828125 C 17.300781 -35.210938 21.269531 -35.90625 25.59375 -35.90625 C 29.050781 -35.90625 32.316406 -35.4375 35.390625 -34.5 C 38.460938 -33.570312 41.078125 -32.117188 43.234375 -30.140625 C 45.398438 -28.160156 46.828125 -25.597656 47.515625 -22.453125 L 35.21875 -21.15625 C 34.539062 -22.882812 33.394531 -24.269531 31.78125 -25.3125 C 30.164062 -26.363281 28.082031 -26.890625 25.53125 -26.890625 C 22.34375 -26.890625 19.816406 -26.054688 17.953125 -24.390625 C 16.085938 -22.734375 15.15625 -20.566406 15.15625 -17.890625 L 15.15625 -17.203125 C 15.15625 -14.566406 16.085938 -12.40625 17.953125 -10.71875 C 19.816406 -9.03125 22.34375 -8.1875 25.53125 -8.1875 C 28.082031 -8.1875 30.164062 -8.707031 31.78125 -9.75 C 33.394531 -10.800781 34.539062 -12.191406 35.21875 -13.921875 L 47.515625 -12.625 C 46.828125 -9.488281 45.398438 -6.929688 43.234375 -4.953125 C 41.078125 -2.972656 38.460938 -1.515625 35.390625 -0.578125 C 32.316406 0.347656 29.050781 0.8125 25.59375 0.8125 Z M 25.59375 0.8125 "/></g></g></g><g fill="#7ed957" fill-opacity="1"><g transform="translate(183.112906, 91.41173)"><g><path d="M 3.546875 0 L 3.546875 -48.46875 L 16.796875 -48.46875 L 16.796875 -31.953125 C 19.703125 -34.585938 23.910156 -35.90625 29.421875 -35.90625 C 31.285156 -35.90625 33.195312 -35.695312 35.15625 -35.28125 C 37.113281 -34.875 38.910156 -34.160156 40.546875 -33.140625 C 42.179688 -32.117188 43.507812 -30.707031 44.53125 -28.90625 C 45.5625 -27.113281 46.078125 -24.851562 46.078125 -22.125 L 46.078125 0 L 32.828125 0 L 32.828125 -20.75 C 32.828125 -22.84375 32.097656 -24.351562 30.640625 -25.28125 C 29.191406 -26.21875 27.257812 -26.6875 24.84375 -26.6875 C 22.4375 -26.6875 20.503906 -26.21875 19.046875 -25.28125 C 17.585938 -24.351562 16.835938 -22.84375 16.796875 -20.75 L 16.796875 0 Z M 3.546875 0 "/></g></g></g><g fill="#7ed957" fill-opacity="1"><g transform="translate(232.396734, 91.41173)"><g/></g></g><g fill="#7ed957" fill-opacity="1"><g transform="translate(247.55048, 91.41173)"><g><path d="M 31.125 0.8125 C 24.976562 0.8125 19.753906 -0.265625 15.453125 -2.421875 C 11.160156 -4.585938 7.875 -7.554688 5.59375 -11.328125 C 3.320312 -15.109375 2.1875 -19.390625 2.1875 -24.171875 C 2.1875 -28.992188 3.3125 -33.289062 5.5625 -37.0625 C 7.8125 -40.84375 11.097656 -43.820312 15.421875 -46 C 19.742188 -48.1875 24.976562 -49.28125 31.125 -49.28125 C 37.3125 -49.28125 42.554688 -48.195312 46.859375 -46.03125 C 51.160156 -43.875 54.4375 -40.90625 56.6875 -37.125 C 58.945312 -33.351562 60.078125 -29.035156 60.078125 -24.171875 C 60.078125 -19.390625 58.945312 -15.109375 56.6875 -11.328125 C 54.4375 -7.554688 51.160156 -4.585938 46.859375 -2.421875 C 42.554688 -0.265625 37.3125 0.8125 31.125 0.8125 Z M 31.125 -9.5625 C 35.769531 -9.5625 39.457031 -10.773438 42.1875 -13.203125 C 44.914062 -15.640625 46.28125 -19.019531 46.28125 -23.34375 L 46.28125 -25.125 C 46.28125 -29.445312 44.914062 -32.820312 42.1875 -35.25 C 39.457031 -37.6875 35.769531 -38.90625 31.125 -38.90625 C 26.488281 -38.90625 22.800781 -37.6875 20.0625 -35.25 C 17.332031 -32.820312 15.96875 -29.445312 15.96875 -25.125 L 15.96875 -23.34375 C 15.96875 -19.019531 17.332031 -15.640625 20.0625 -13.203125 C 22.800781 -10.773438 26.488281 -9.5625 31.125 -9.5625 Z M 31.125 -9.5625 "/></g></g></g><g fill="#7ed957" fill-opacity="1"><g transform="translate(308.711581, 91.41173)"><g><path d="M 17.546875 0 L 0 -35.09375 L 13.796875 -35.09375 L 24.578125 -12.015625 L 35.296875 -35.09375 L 48.8125 -35.09375 L 31.265625 0 Z M 17.546875 0 "/></g></g></g><g fill="#7ed957" fill-opacity="1"><g transform="translate(354.718916, 91.41173)"><g><path d="M 26.34375 0.8125 C 21.65625 0.8125 17.46875 0.109375 13.78125 -1.296875 C 10.101562 -2.703125 7.203125 -4.769531 5.078125 -7.5 C 2.960938 -10.238281 1.90625 -13.585938 1.90625 -17.546875 C 1.90625 -21.546875 2.90625 -24.910156 4.90625 -27.640625 C 6.914062 -30.378906 9.726562 -32.441406 13.34375 -33.828125 C 16.957031 -35.210938 21.15625 -35.90625 25.9375 -35.90625 C 30.988281 -35.90625 35.265625 -35.117188 38.765625 -33.546875 C 42.273438 -31.984375 44.882812 -29.640625 46.59375 -26.515625 C 48.300781 -23.398438 48.925781 -19.546875 48.46875 -14.953125 L 15.21875 -14.953125 C 15.445312 -13.035156 16.457031 -11.414062 18.25 -10.09375 C 20.050781 -8.78125 22.75 -8.125 26.34375 -8.125 C 29.53125 -8.125 31.816406 -8.488281 33.203125 -9.21875 C 34.597656 -9.945312 35.613281 -10.898438 36.25 -12.078125 L 48.328125 -10.78125 C 47.328125 -7.007812 44.847656 -4.132812 40.890625 -2.15625 C 36.929688 -0.175781 32.082031 0.8125 26.34375 0.8125 Z M 26.078125 -27.640625 C 22.660156 -27.640625 20.097656 -27.0625 18.390625 -25.90625 C 16.691406 -24.75 15.660156 -23.347656 15.296875 -21.703125 L 36.390625 -21.703125 C 36.109375 -23.617188 35.113281 -25.085938 33.40625 -26.109375 C 31.707031 -27.128906 29.265625 -27.640625 26.078125 -27.640625 Z M 26.078125 -27.640625 "/></g></g><g transform="translate(405.367958, 91.41173)"><g><path d="M 3.546875 0 L 3.546875 -35.09375 L 16.59375 -35.09375 L 16.59375 -30.234375 C 18.1875 -32.191406 20.1875 -33.625 22.59375 -34.53125 C 25.007812 -35.445312 27.515625 -35.90625 30.109375 -35.90625 C 30.609375 -35.90625 31.195312 -35.878906 31.875 -35.828125 C 32.5625 -35.785156 33.316406 -35.695312 34.140625 -35.5625 L 34.140625 -25.390625 C 32.910156 -25.523438 31.53125 -25.640625 30 -25.734375 C 28.476562 -25.828125 26.941406 -25.804688 25.390625 -25.671875 C 23.847656 -25.535156 22.425781 -25.203125 21.125 -24.671875 C 19.832031 -24.148438 18.785156 -23.320312 17.984375 -22.1875 C 17.191406 -21.050781 16.796875 -19.503906 16.796875 -17.546875 L 16.796875 0 Z M 3.546875 0 "/></g></g><g transform="translate(440.453682, 91.41173)"><g><path d="M 9.421875 0 L 9.421875 -26.421875 L 1.03125 -26.421875 L 1.03125 -35.09375 L 9.421875 -35.09375 C 9.597656 -39.820312 11.378906 -43.367188 14.765625 -45.734375 C 18.160156 -48.097656 22.707031 -49.28125 28.40625 -49.28125 C 31.945312 -49.28125 35.675781 -48.828125 39.59375 -47.921875 L 39.59375 -39.9375 C 38.039062 -40.164062 36.457031 -40.359375 34.84375 -40.515625 C 33.226562 -40.671875 31.765625 -40.75 30.453125 -40.75 C 29.085938 -40.75 27.8125 -40.625 26.625 -40.375 C 25.4375 -40.125 24.476562 -39.625 23.75 -38.875 C 23.03125 -38.125 22.671875 -37.019531 22.671875 -35.5625 L 22.671875 -35.09375 L 37.609375 -35.09375 L 37.609375 -26.421875 L 22.671875 -26.421875 L 22.671875 0 Z M 9.421875 0 "/></g></g></g><g fill="#7ed957" fill-opacity="1"><g transform="translate(478.815873, 91.41173)"><g><path d="M 3.546875 0 L 3.546875 -48.46875 L 16.796875 -48.46875 L 16.796875 0 Z M 3.546875 0 "/></g></g></g><g fill="#7ed957" fill-opacity="1"><g transform="translate(499.157388, 91.41173)"><g><path d="M 25.875 0.8125 C 22.726562 0.8125 19.722656 0.414062 16.859375 -0.375 C 13.992188 -1.164062 11.429688 -2.335938 9.171875 -3.890625 C 6.921875 -5.441406 5.144531 -7.351562 3.84375 -9.625 C 2.550781 -11.894531 1.90625 -14.535156 1.90625 -17.546875 C 1.90625 -21.546875 2.960938 -24.910156 5.078125 -27.640625 C 7.203125 -30.378906 10.082031 -32.441406 13.71875 -33.828125 C 17.363281 -35.210938 21.414062 -35.90625 25.875 -35.90625 C 30.332031 -35.90625 34.367188 -35.210938 37.984375 -33.828125 C 41.609375 -32.441406 44.476562 -30.378906 46.59375 -27.640625 C 48.707031 -24.910156 49.765625 -21.546875 49.765625 -17.546875 C 49.765625 -14.535156 49.113281 -11.894531 47.8125 -9.625 C 46.519531 -7.351562 44.742188 -5.441406 42.484375 -3.890625 C 40.234375 -2.335938 37.675781 -1.164062 34.8125 -0.375 C 31.945312 0.414062 28.96875 0.8125 25.875 0.8125 Z M 25.875 -8.1875 C 29.0625 -8.1875 31.617188 -9.015625 33.546875 -10.671875 C 35.484375 -12.335938 36.453125 -14.515625 36.453125 -17.203125 L 36.453125 -17.890625 C 36.453125 -20.617188 35.484375 -22.800781 33.546875 -24.4375 C 31.617188 -26.070312 29.0625 -26.890625 25.875 -26.890625 C 22.6875 -26.890625 20.113281 -26.070312 18.15625 -24.4375 C 16.195312 -22.800781 15.21875 -20.617188 15.21875 -17.890625 L 15.21875 -17.203125 C 15.21875 -14.515625 16.195312 -12.335938 18.15625 -10.671875 C 20.113281 -9.015625 22.6875 -8.1875 25.875 -8.1875 Z M 25.875 -8.1875 "/></g></g></g><g fill="#7ed957" fill-opacity="1"><g transform="translate(548.782534, 91.41173)"><g><path d="M 14.125 0 L 0 -35.09375 L 13.71875 -35.09375 L 21.578125 -11.8125 L 30.234375 -35.09375 L 44.640625 -35.09375 L 53.3125 -11.8125 L 61.171875 -35.09375 L 74.203125 -35.09375 L 60.078125 0 L 46.21875 0 L 37.0625 -23.96875 L 27.859375 0 Z M 14.125 0 "/></g></g></g></svg>